<?xml version="1.0" encoding="UTF-8"?>
<svg version="1.1" xmlns="http://www.w3.org/2000/svg" width="3000" height="3000">
<path d="M0 0 C16.1503192 -0.02332909 32.30063296 -0.04097922 48.45096493 -0.05181217 C55.94933064 -0.05697511 63.44768591 -0.06401776 70.94604492 -0.07543945 C77.47930504 -0.08538637 84.01255759 -0.09185344 90.54582506 -0.09408849 C94.00721807 -0.09539559 97.46858942 -0.09848136 100.92997551 -0.10573006 C104.78787527 -0.11374407 108.64575357 -0.11399113 112.50366211 -0.11352539 C113.65955841 -0.11712067 114.81545471 -0.12071594 116.00637817 -0.12442017 C117.57347282 -0.12235817 117.57347282 -0.12235817 119.17222595 -0.12025452 C120.54247122 -0.12163721 120.54247122 -0.12163721 121.94039822 -0.12304783 C124 0 124 0 125 1 C127.6705367 1.24495374 130.3235112 1.42931724 133 1.578125 C134.74856567 1.68504905 136.49709936 1.79249704 138.24560547 1.90039062 C139.18128357 1.95686768 140.11696167 2.01334473 141.08099365 2.0715332 C159.05275013 3.17031869 176.96445719 4.65831866 194.875 6.5 C195.87515137 6.60155396 196.87530273 6.70310791 197.90576172 6.80773926 C211.98070813 8.24408835 225.99389983 10.00219538 240 12 C240 12.66 240 13.32 240 14 C241.68790649 13.95588989 241.68790649 13.95588989 243.40991211 13.91088867 C248.18989671 13.91475624 252.74068509 14.61224917 257.44140625 15.42578125 C258.32674545 15.57403854 259.21208466 15.72229584 260.12425232 15.87504578 C261.99130973 16.18895344 263.85784721 16.50596777 265.72387695 16.82592773 C268.52900862 17.3067592 271.33557439 17.77828125 274.14257812 18.24804688 C301.73109631 22.89330328 301.73109631 22.89330328 307.83764648 24.96069336 C311.88306705 26.29021975 315.96904541 27.14870162 320.1328125 28.0234375 C321.92712343 28.40866744 323.72139294 28.79409035 325.515625 29.1796875 C328.31227499 29.77673612 331.10933431 30.37168981 333.90722656 30.96289062 C343.03830915 32.8971405 352.01586084 34.80239386 360.82177734 37.94189453 C368.33998944 40.4448851 376.08232683 42.26421039 383.75 44.25 C385.52613832 44.7131712 387.30218076 45.17671021 389.078125 45.640625 C393.38432444 46.764655 397.69178609 47.88371715 402 49 C402 49.66 402 50.32 402 51 C403.00554932 51.12238037 404.01109863 51.24476074 405.04711914 51.37084961 C408.89997336 51.92353716 412.51990215 52.93095731 416.24609375 54.06640625 C416.90207047 54.26475571 417.55804718 54.46310516 418.23390198 54.66746521 C420.30325501 55.2943674 422.37037387 55.92829827 424.4375 56.5625 C425.85076901 56.99200546 427.26417931 57.4210463 428.67773438 57.84960938 C432.12013809 58.89437768 435.56057681 59.94545537 439 61 C439 61.66 439 62.32 439 63 C439.85972412 63.12455566 440.71944824 63.24911133 441.60522461 63.37744141 C447.43333626 64.44624289 452.95361873 66.49446262 458.5625 68.375 C459.78130859 68.77460938 461.00011719 69.17421875 462.25585938 69.5859375 C463.43083984 69.9778125 464.60582031 70.3696875 465.81640625 70.7734375 C466.88318604 71.12841309 467.94996582 71.48338867 469.04907227 71.84912109 C471.94132507 72.97711644 474.36000022 74.38211923 477 76 C478.39160838 76.56257874 479.80298275 77.07890795 481.23046875 77.54296875 C482.02412842 77.80787109 482.81778809 78.07277344 483.63549805 78.34570312 C484.89873901 78.76239258 484.89873901 78.76239258 486.1875 79.1875 C494.55611243 82.02871915 502.56815292 85.34618575 510.6015625 89.015625 C515.70335212 91.34227783 520.88338418 93.46404823 526.08081055 95.56640625 C531.10361369 97.60439058 536.05465563 99.78131439 541 102 C542.6051992 102.71414785 544.2106701 103.42768529 545.81640625 104.140625 C550.2109375 106.09375 554.60546875 108.046875 559 110 C559 110.66 559 111.32 559 112 C560.134375 112.33 561.26875 112.66 562.4375 113 C570.25485905 115.57646078 577.60307486 119.42467797 585 123 C585 123.66 585 124.32 585 125 C586.794375 125.5259375 586.794375 125.5259375 588.625 126.0625 C595.4166576 128.30103034 601.67029095 131.71359345 608 135 C608 135.66 608 136.32 608 137 C609.2375 137.350625 610.475 137.70125 611.75 138.0625 C616.65808005 139.71113089 620.80275046 142.09879861 625.21875 144.7734375 C631.02162689 148.24932181 637.02829664 151.37698712 642.99487305 154.56030273 C648.17214877 157.35154974 653.1048353 160.31957243 657.96166992 163.63647461 C661.73388062 166.15986625 665.72379457 168.28509961 669.69140625 170.484375 C670.45324219 170.98453125 671.21507813 171.4846875 672 172 C672 172.66 672 173.32 672 174 C672.84691406 174.24105469 673.69382812 174.48210937 674.56640625 174.73046875 C678.37762669 176.13962307 681.57781202 178.07546072 684.9375 180.3125 C685.5564917 180.71694336 686.1754834 181.12138672 686.81323242 181.53808594 C689.86408254 183.54220592 692.87040082 185.5883168 695.8125 187.75 C699.14178774 190.10008546 702.54802569 191.95476552 706.1796875 193.7890625 C708 195 708 195 709 198 C710.87893113 198.58549674 710.87893113 198.58549674 713 199 C714.7800293 200.01220703 714.7800293 200.01220703 716.57421875 201.2578125 C717.23752197 201.71534912 717.9008252 202.17288574 718.58422852 202.64428711 C719.27830811 203.13292236 719.9723877 203.62155762 720.6875 204.125 C721.40284912 204.62201416 722.11819824 205.11902832 722.85522461 205.63110352 C727.39141281 208.8039143 731.78486501 212.11277904 736.10546875 215.57421875 C737.96561127 216.97411982 739.83926405 218.12465528 741.875 219.25 C745 221 745 221 746.30859375 222.3359375 C748.69503166 224.68379558 751.44288189 226.47719467 754.1875 228.375 C760.42936724 232.753611 766.34341942 237.45326461 772.22265625 242.30419922 C776.90728839 246.15572775 781.68117495 249.76333383 786.66796875 253.21875 C789 255 789 255 791.4140625 257.4296875 C795.06546399 261.05902614 799.19072453 263.9047652 803.35546875 266.9140625 C806 269 806 269 808 272 C809.66190151 273.00789938 811.32930529 274.00674427 813 275 C814.80548493 276.54370311 816.57473942 278.13043731 818.3125 279.75 C821.53274368 282.72485078 824.75147048 285.68890324 828.0625 288.5625 C839.58181197 298.58943148 851.07972653 308.79163503 861.70703125 319.76953125 C863.59690259 321.60788991 865.51663226 323.30953819 867.51953125 325.01953125 C873.26180928 330.0039113 878.53725958 335.46684969 883.875 340.875 C885.93201953 342.95860255 887.99233984 345.03886023 890.0546875 347.1171875 C890.95687012 348.03097168 891.85905273 348.94475586 892.78857422 349.88623047 C894.81337261 352.02949166 894.81337261 352.02949166 897 353 C897.39703125 353.70511719 897.7940625 354.41023438 898.203125 355.13671875 C900.57226026 358.91188429 903.55840307 361.72747073 906.75 364.8125 C911.06910207 369.05750386 915.28718516 373.30001407 919.2109375 377.91796875 C921.69249627 380.80589631 924.24858937 383.62269565 926.8125 386.4375 C927.29356201 386.97068848 927.77462402 387.50387695 928.27026367 388.05322266 C930.8264388 390.9133353 930.8264388 390.9133353 934 393 C934.5878125 393.99 934.5878125 393.99 935.1875 395 C938.37016317 400.26785628 942.14738164 405.14738164 946.5 409.5 C949.4820712 412.4820712 951.92910217 415.73431866 954.44921875 419.109375 C955.87182968 421.10588458 955.87182968 421.10588458 958 422 C958.495 423.485 958.495 423.485 959 425 C959.721875 425.721875 960.44375 426.44375 961.1875 427.1875 C964.05325148 430.05325148 966.32371491 433.03751011 968.66796875 436.328125 C969.91356882 438.1321474 969.91356882 438.1321474 972 439 C972.96047872 440.68911775 973.91837879 442.37982663 974.85546875 444.08203125 C976.91804402 447.53842871 979.34763714 451.17381857 983 453 C983.96216253 454.69207894 984.92117418 456.38612547 985.85546875 458.09375 C986.97904287 459.96509529 988.19923137 461.53882359 989.625 463.1875 C992 466 992 466 993 468.0625 C993.97238222 470.20884587 993.97238222 470.20884587 996.25 472.125 C999.39298519 475.41084815 1001.43148589 478.85699496 1003.66796875 482.79296875 C1005.0302451 485.05011285 1006.56639975 486.59931705 1008.4921875 488.37890625 C1010.12955693 490.13929048 1011.0466899 491.79286102 1012.125 493.9375 C1014.26183082 497.91977562 1016.74588671 501.41782275 1019.5 505 C1022.77448133 509.2606396 1025.58351241 513.47526084 1028.02734375 518.2578125 C1028.99464571 520.17645195 1028.99464571 520.17645195 1031 522 C1033 524 1033 524 1033 527 C1033.66 527 1034.32 527 1035 527 C1035.35191406 527.67804687 1035.70382813 528.35609375 1036.06640625 529.0546875 C1038.61919564 533.86699543 1041.23190266 538.46549053 1044.4375 542.875 C1047.95615875 547.73558626 1050.6981797 552.87563731 1053.421875 558.21484375 C1054.81802352 560.67883854 1056.02015815 562.06172963 1058 564 C1059.07173912 565.76168822 1060.08888031 567.55724456 1061.0625 569.375 C1061.56910156 570.31085937 1062.07570313 571.24671875 1062.59765625 572.2109375 C1064 575 1064 575 1065.08984375 577.75390625 C1066.06784032 580.1674171 1067.14544789 581.2227209 1069 583 C1070.58913558 585.67643887 1071 586.8180056 1071 590 C1071.66 590 1072.32 590 1073 590 C1073.35191406 590.72703125 1073.70382813 591.4540625 1074.06640625 592.203125 C1076.66700553 597.49938463 1079.34786789 602.68390304 1082.375 607.75 C1089.12194941 619.1622361 1094.61914704 631.24931884 1100.28833008 643.22045898 C1102.7987338 648.5120764 1105.36010011 653.771884 1108 659 C1127 696.74238936 1127 696.74238936 1127 704 C1127.66 704.33 1128.32 704.66 1129 705 C1132.29705853 711.60606293 1134.69261986 718.72322397 1137.3125 725.625 C1137.57901367 726.32375244 1137.84552734 727.02250488 1138.12011719 727.74243164 C1140 732.76142232 1140 732.76142232 1140 735 C1140.66 735 1141.32 735 1142 735 C1143.29932306 738.80993303 1144.58803903 742.62337518 1145.875 746.4375 C1146.23980469 747.50677734 1146.60460938 748.57605469 1146.98046875 749.67773438 C1149.0224094 755.74786703 1150.74506401 761.71871511 1152 768 C1152.66 768 1153.32 768 1154 768 C1156.26266125 774.7601356 1158.4964107 781.52881433 1160.6875 788.3125 C1161.00783203 789.28767578 1161.32816406 790.26285156 1161.65820312 791.26757812 C1161.96048828 792.20666016 1162.26277344 793.14574219 1162.57421875 794.11328125 C1162.84838623 794.95673096 1163.12255371 795.80018066 1163.4050293 796.66918945 C1164 799 1164 799 1164 803 C1164.66 803 1165.32 803 1166 803 C1166.18357056 803.76570313 1166.18357056 803.76570313 1166.37084961 804.546875 C1167.20512323 807.7997975 1168.13857195 811.02286892 1169.06640625 814.25 C1169.47359108 815.67700239 1169.88048325 817.10408831 1170.28710938 818.53125 C1170.92532994 820.77030973 1171.56505832 823.00887835 1172.2097168 825.24609375 C1172.83347477 827.41270671 1173.45052211 829.58113764 1174.06640625 831.75 C1174.26013321 832.41676758 1174.45386017 833.08353516 1174.65345764 833.77050781 C1175.57289958 837.03061143 1176 839.57110256 1176 843 C1176.66 843 1177.32 843 1178 843 C1178.21891907 843.87578201 1178.21891907 843.87578201 1178.44226074 844.76925659 C1178.9358762 846.74352934 1179.42982712 848.71771822 1179.92382812 850.69189453 C1180.91153427 854.64637436 1181.8900254 858.60308841 1182.86572266 862.56054688 C1183.28607093 864.26006121 1183.70889344 865.95896563 1184.13427734 867.65722656 C1188.48751762 885.04986124 1188.48751762 885.04986124 1189 894 C1189.66 894 1190.32 894 1191 894 C1192.10526015 899.47637585 1193.20784923 904.95328068 1194.30810547 910.43066406 C1194.68174396 912.28887998 1195.05607647 914.1469565 1195.43115234 916.00488281 C1201.13384035 944.25980101 1201.13384035 944.25980101 1201 952 C1201.66 952 1202.32 952 1203 952 C1202.9690625 953.2065625 1202.9690625 953.2065625 1202.9375 954.4375 C1202.70366379 956.93354885 1202.70366379 956.93354885 1204 958 C1203.9690625 959.299375 1203.9690625 959.299375 1203.9375 960.625 C1203.84854784 963.99110559 1203.84854784 963.99110559 1204.91186523 967.04760742 C1206.33454566 971.82196131 1206.86774087 976.67995334 1207.47265625 981.61328125 C1207.60063095 982.62287399 1207.72860565 983.63246674 1207.86045837 984.6726532 C1208.26624937 987.88531647 1208.66432525 991.09888491 1209.0625 994.3125 C1209.33351188 996.46034613 1209.60499177 998.60813326 1209.87695312 1000.75585938 C1210.13844019 1002.83328059 1210.39952109 1004.91075298 1210.66015625 1006.98828125 C1210.77996353 1007.94277664 1210.89977081 1008.89727203 1211.02320862 1009.88069153 C1213.15561959 1027.10662857 1213.15561959 1027.10662857 1213.0625 1033.625 C1213.05347656 1034.46289062 1213.04445313 1035.30078125 1213.03515625 1036.1640625 C1213.01775391 1037.07285156 1213.01775391 1037.07285156 1213 1038 C1213.66 1038 1214.32 1038 1215 1038 C1214.98839844 1038.78246094 1214.97679688 1039.56492187 1214.96484375 1040.37109375 C1214.95582031 1041.38300781 1214.94679688 1042.39492187 1214.9375 1043.4375 C1214.92589844 1044.44683594 1214.91429688 1045.45617188 1214.90234375 1046.49609375 C1214.71387324 1048.94021067 1214.71387324 1048.94021067 1216 1050 C1216.07210404 1052.84810965 1215.99622599 1055.68303927 1215.9375 1058.53125 C1215.71492704 1060.94458856 1215.71492704 1060.94458856 1217 1062 C1217.21864901 1064.35958724 1217.37878226 1066.69737654 1217.5 1069.0625 C1217.54060547 1069.76898682 1217.58121094 1070.47547363 1217.62304688 1071.20336914 C1217.79730156 1074.23774644 1217.96060289 1077.27269247 1218.125 1080.30761719 C1218.24626198 1082.51780629 1218.37298758 1084.72763515 1218.5 1086.9375 C1218.53544922 1087.6291626 1218.57089844 1088.3208252 1218.60742188 1089.03344727 C1218.53693509 1092.30139612 1218.53693509 1092.30139612 1220 1095 C1220.09603022 1096.6195634 1220.12187855 1098.24333083 1220.12025452 1099.86573792 C1220.12162918 1100.91888184 1220.12300385 1101.97202576 1220.12442017 1103.05708313 C1220.11902725 1104.80495369 1220.11902725 1104.80495369 1220.11352539 1106.58813477 C1220.11374443 1108.41714828 1220.11374443 1108.41714828 1220.1139679 1110.28311157 C1220.11338893 1113.63627511 1220.10835968 1116.98937774 1220.10139394 1120.34253049 C1220.09515983 1123.84325562 1220.09455656 1127.34398148 1220.09336853 1130.8447113 C1220.09025538 1137.47809656 1220.08204222 1144.11146541 1220.07201904 1150.74484342 C1220.06085739 1158.29490207 1220.05534732 1165.84496149 1220.05032361 1173.39502633 C1220.03985959 1188.93002706 1220.02226047 1204.46501142 1220 1220 C1219.34 1220 1218.68 1220 1218 1220 C1218.02320312 1220.91394531 1218.04640625 1221.82789063 1218.0703125 1222.76953125 C1218.22887865 1232.36585641 1217.76678764 1241.86616757 1217.0625 1251.4375 C1216.97564941 1252.64059814 1216.88879883 1253.84369629 1216.79931641 1255.08325195 C1216.12913438 1263.74173125 1216.12913438 1263.74173125 1215 1266 C1214.95509079 1267.68690231 1214.96116137 1269.375447 1215 1271.0625 C1215.03777102 1272.70789986 1215.04642479 1274.35482156 1215 1276 C1214.505 1276.495 1214.505 1276.495 1214 1277 C1213.7517074 1278.47890129 1213.56294598 1279.96786681 1213.39916992 1281.45849609 C1213.23825867 1282.8905262 1213.23825867 1282.8905262 1213.07409668 1284.35148621 C1212.96069946 1285.39823013 1212.84730225 1286.44497406 1212.73046875 1287.5234375 C1212.48080551 1289.75350972 1212.23104593 1291.98357116 1211.98120117 1294.21362305 C1211.78667862 1295.97094254 1211.78667862 1295.97094254 1211.58822632 1297.76376343 C1207.9626398 1330.43656291 1207.9626398 1330.43656291 1205.6875 1345.6875 C1205.44906372 1347.30180908 1205.44906372 1347.30180908 1205.20581055 1348.94873047 C1204.13814413 1355.86185587 1204.13814413 1355.86185587 1203 1357 C1202.95936168 1358.66617115 1202.957279 1360.33388095 1203 1362 C1202.34 1362 1201.68 1362 1201 1362 C1200.94283813 1362.90286743 1200.94283813 1362.90286743 1200.88452148 1363.82397461 C1200.22299148 1372.51871348 1198.66371332 1381.00514895 1197.0625 1389.5625 C1196.79448686 1391.01749806 1196.52690642 1392.4725759 1196.25976562 1393.92773438 C1192.62100326 1413.68386071 1192.62100326 1413.68386071 1191 1420 C1190.34 1420 1189.68 1420 1189 1420 C1188.91621094 1421.29164062 1188.83242187 1422.58328125 1188.74609375 1423.9140625 C1188.02531655 1431.10156661 1186.29791815 1438.04983463 1184.61645508 1445.06103516 C1184.05915308 1447.38898067 1183.51428739 1449.71959874 1182.97070312 1452.05078125 C1182.61791678 1453.5418394 1182.26442642 1455.0327312 1181.91015625 1456.5234375 C1181.74862564 1457.21513031 1181.58709503 1457.90682312 1181.42066956 1458.61947632 C1180.60287419 1462.00007535 1179.57925645 1464.91504271 1178 1468 C1178 1468.99 1178 1469.98 1178 1471 C1177.34 1471 1176.68 1471 1176 1471 C1175.90589844 1472.05703125 1175.81179687 1473.1140625 1175.71484375 1474.203125 C1174.96220948 1480.20832638 1173.22193161 1485.94367921 1171.5625 1491.75 C1171.09360352 1493.43416016 1171.09360352 1493.43416016 1170.61523438 1495.15234375 C1169.34244159 1499.65690003 1168.10399715 1503.81884924 1166 1508 C1165.63945185 1509.32623298 1165.30981354 1510.66100618 1165 1512 C1163.75974461 1516.14830246 1162.473039 1520.28224434 1161.18920898 1524.41723633 C1160.56589892 1526.42654322 1159.94594858 1528.43686648 1159.32617188 1530.44726562 C1158.92728875 1531.73443868 1158.52820673 1533.02155011 1158.12890625 1534.30859375 C1157.76869385 1535.47189209 1157.40848145 1536.63519043 1157.03735352 1537.83374023 C1156.1274082 1540.61111862 1155.12312185 1543.30305265 1154 1546 C1153.34 1546 1152.68 1546 1152 1546 C1151.91621094 1546.91523437 1151.83242187 1547.83046875 1151.74609375 1548.7734375 C1150.9575436 1554.2808159 1148.93235338 1559.40926737 1147.0625 1564.625 C1146.70220703 1565.64851563 1146.34191406 1566.67203125 1145.97070312 1567.7265625 C1144.39378512 1572.18723663 1142.77900011 1576.61538371 1141 1581 C1140.34 1581 1139.68 1581 1139 1581 C1138.89945313 1581.81597656 1138.79890625 1582.63195313 1138.6953125 1583.47265625 C1137.86394347 1587.69021935 1136.45971018 1591.45325701 1134.875 1595.4375 C1134.40912476 1596.62448486 1134.40912476 1596.62448486 1133.93383789 1597.83544922 C1131.68897756 1603.47446597 1129.20360014 1608.96068986 1126.56933594 1614.42626953 C1123.71666518 1620.4207549 1121.4255109 1626.59512828 1119.1640625 1632.83203125 C1118 1636 1118 1636 1117 1638 C1116.34 1638 1115.68 1638 1115 1638 C1114.79697266 1638.82177734 1114.79697266 1638.82177734 1114.58984375 1639.66015625 C1112.35349137 1647.89582518 1108.72019828 1655.35575696 1105 1663 C1104.34 1663 1103.68 1663 1103 1663 C1102.67 1664.134375 1102.34 1665.26875 1102 1666.4375 C1099.42353922 1674.25485905 1095.57532203 1681.60307486 1092 1689 C1091.34 1689 1090.68 1689 1090 1689 C1089.4740625 1690.794375 1089.4740625 1690.794375 1088.9375 1692.625 C1086.69896966 1699.4166576 1083.28640655 1705.67029095 1080 1712 C1079.34 1712 1078.68 1712 1078 1712 C1077.75121094 1712.64710937 1077.50242187 1713.29421875 1077.24609375 1713.9609375 C1075.62969681 1717.90312188 1073.85881095 1721.76210747 1072.0625 1725.625 C1071.71509766 1726.388125 1071.36769531 1727.15125 1071.00976562 1727.9375 C1070.66751953 1728.67226562 1070.32527344 1729.40703125 1069.97265625 1730.1640625 C1069.66593994 1730.82873535 1069.35922363 1731.4934082 1069.04321289 1732.17822266 C1067.92016898 1734.13941003 1066.61740055 1735.43575726 1065 1737 C1064.04969568 1738.69984012 1063.15596017 1740.432191 1062.3125 1742.1875 C1061.87550781 1743.08855469 1061.43851563 1743.98960938 1060.98828125 1744.91796875 C1060.66214844 1745.60503906 1060.33601563 1746.29210938 1060 1747 C1059.34 1747 1058.68 1747 1058 1747 C1057.8453125 1748.1446875 1057.8453125 1748.1446875 1057.6875 1749.3125 C1057 1752 1057 1752 1055.64453125 1753.3359375 C1053.55866761 1755.44657386 1052.39051111 1757.69442829 1051 1760.3125 C1050.47921875 1761.28703125 1049.9584375 1762.2615625 1049.421875 1763.265625 C1048.33759872 1765.35077169 1047.28621715 1767.45305795 1046.25 1769.5625 C1045 1772 1045 1772 1043 1774 C1039.93608352 1777.47243867 1037.88622575 1780.97718994 1035.9296875 1785.1328125 C1035 1787 1035 1787 1033 1790 C1032.34 1790 1031.68 1790 1031 1790 C1030.9071875 1790.55558594 1030.814375 1791.11117187 1030.71875 1791.68359375 C1029.8105041 1794.61071234 1028.31391093 1796.59810871 1026.5 1799.0625 C1024.4977463 1801.79098097 1023.0738823 1803.7783531 1022 1807 C1021.34 1807 1020.68 1807 1020 1807 C1020 1807.99 1020 1808.98 1020 1810 C1018.68706386 1811.35342316 1017.34980686 1812.68334629 1016 1814 C1014.10462211 1816.86306027 1012.35118975 1819.78971841 1010.5859375 1822.734375 C1010.06257813 1823.48203125 1009.53921875 1824.2296875 1009 1825 C1008.34 1825 1007.68 1825 1007 1825 C1007 1825.99 1007 1826.98 1007 1828 C1006.34 1828.33 1005.68 1828.66 1005 1829 C1004.01310676 1830.71061494 1003.02994595 1832.42373175 1002.08203125 1834.15625 C1000.62797338 1836.63392262 998.79941754 1838.7662403 997 1841 C996.67 1841.99 996.34 1842.98 996 1844 C994.35570171 1845.68873879 992.68615782 1847.35305515 991 1849 C988.64639602 1851.74587131 987.14576613 1853.56270161 986 1857 C985.34 1857.33 984.68 1857.66 984 1858 C983.67 1858.99 983.34 1859.98 983 1861 C981.82558044 1862.14086472 980.64919704 1863.27980743 979.4609375 1864.40625 C977.09939819 1866.9824747 975.35580357 1869.94598091 973.52734375 1872.9140625 C971.90415309 1875.1309009 970.21707226 1876.40662158 968 1878 C966.98648336 1879.65848177 965.98879205 1881.32665961 965 1883 C963.47432272 1884.82278285 961.90397536 1886.59314152 960.3046875 1888.3515625 C958.78371056 1890.08086945 958.78371056 1890.08086945 958 1893 C956.33784732 1894.33895632 954.67036393 1895.67130142 953 1897 C950.35335572 1899.79368007 948.23515563 1902.2945331 947 1906 C945.57568934 1907.19244614 944.14788723 1908.38121307 942.6953125 1909.5390625 C938.94763171 1912.76863074 935.57347535 1916.27957394 934 1921 C932.0533282 1922.84399021 929.99199281 1924.49469912 927.91015625 1926.18359375 C925.94149465 1928.05563392 925.1932063 1929.5994387 924 1932 C922.1953125 1933.7109375 922.1953125 1933.7109375 920.125 1935.375 C917.55741608 1937.53766029 915.88354623 1939.17468065 914 1942 C911.71430195 1945.42854707 909.10480214 1947.62850343 905.96484375 1950.25390625 C904.13532537 1951.87974068 902.64240886 1953.52385381 901.125 1955.4375 C900.42375 1956.283125 899.7225 1957.12875 899 1958 C898.34 1958 897.68 1958 897 1958 C897 1958.99 897 1959.98 897 1961 C893.79062192 1964.53958485 890.19708409 1967.64470623 886.625 1970.8125 C882.61981705 1974.42522878 879.01862451 1978.13612768 875.55078125 1982.2578125 C873.26183426 1984.82927436 870.68170493 1986.84297647 868 1989 C867.21625 1989.78375 866.4325 1990.5675 865.625 1991.375 C863.47887529 1993.52112471 861.30616243 1995.47251141 859 1997.4375 C856.53026478 1999.56626431 854.57911818 2001.51558023 852.5 2004.0625 C849.86183446 2007.16234451 847.12408792 2009.21178054 843.83984375 2011.56640625 C841.82193813 2013.02441265 841.82193813 2013.02441265 840 2015.5 C838.20133947 2017.74832567 836.79918678 2018.97599309 834.5 2020.625 C830.82329162 2023.27850567 827.49720836 2026.22216712 824.1875 2029.3125 C819.49339143 2033.68833883 814.64901056 2037.79406313 809.6484375 2041.8203125 C807.02724881 2043.97757399 804.50845719 2046.21311 802 2048.5 C798.40987157 2051.75696451 794.77494035 2054.94522091 791.0625 2058.0625 C790.16660156 2058.81660156 789.27070313 2059.57070312 788.34765625 2060.34765625 C786 2062 786 2062 783 2062 C782.773125 2062.5775 782.54625 2063.155 782.3125 2063.75 C780.19669228 2067.37709895 777.09447986 2069.37067408 773.5 2071.4375 C770.861908 2072.9486971 770.861908 2072.9486971 768.625 2075.4375 C766.18210494 2077.82223089 763.88814177 2079.18649894 760.93505859 2080.82885742 C757.54383768 2082.88130339 754.55118667 2085.41791183 751.5 2087.9375 C738.00235849 2099 738.00235849 2099 734 2099 C733.67 2099.99 733.34 2100.98 733 2102 C731.09375 2103.40234375 731.09375 2103.40234375 728.5 2104.9375 C723.43793814 2108.04555353 718.58378144 2111.36089246 713.75 2114.8125 C703.65911712 2121.98976269 693.49410719 2129.02611838 682.80859375 2135.296875 C678.12918852 2138.13445592 673.5583911 2141.14100504 668.97509766 2144.13061523 C661.77878981 2148.81957095 654.38666206 2153.02483069 646.85742188 2157.15234375 C643.13335785 2159.20764997 639.46462184 2161.30506011 635.87109375 2163.58203125 C632.29359231 2165.84794469 628.63128301 2167.86128995 624.875 2169.8125 C619.87269951 2172.4410077 614.94716252 2175.15852203 610.0625 2178 C598.73481411 2184.54914271 586.89517276 2190.07962817 575.06323242 2195.64648438 C570.04896177 2198.01091247 565.07365432 2200.43891782 560.125 2202.9375 C546.65103123 2209.71980234 533.14705131 2216.33124258 519.0703125 2221.7734375 C516.6372516 2222.74542366 514.36946738 2223.77161477 512.0625 2225 C507.5269122 2227.38767728 502.70352758 2229.05390423 497.89672852 2230.80664062 C493.52871976 2232.40220167 489.2621712 2234.13912382 485 2236 C478.30646847 2238.84625845 471.47510518 2241.31119343 464.625 2243.75 C463.74432861 2244.06807617 462.86365723 2244.38615234 461.95629883 2244.71386719 C461.11736084 2245.00938477 460.27842285 2245.30490234 459.4140625 2245.609375 C458.28411865 2246.0110791 458.28411865 2246.0110791 457.13134766 2246.42089844 C455 2247 455 2247 451 2247 C451 2247.66 451 2248.32 451 2249 C450.33170166 2249.21092285 449.66340332 2249.4218457 448.97485352 2249.63916016 C433.2500905 2254.57949274 433.2500905 2254.57949274 417.6875 2260 C406.82958847 2263.94500961 395.66052613 2266.90603564 384.53955078 2270.00634766 C381.21773465 2270.93887571 377.90297167 2271.89259578 374.58984375 2272.85546875 C363.52427493 2276.051704 352.42956445 2278.92457678 341.1875 2281.4375 C340.02984131 2281.6967627 338.87218262 2281.95602539 337.67944336 2282.22314453 C333.32459889 2283.17176325 329.47351463 2284 325 2284 C325 2284.66 325 2285.32 325 2286 C319.52362415 2287.10526015 314.04671932 2288.20784923 308.56933594 2289.30810547 C306.71112002 2289.68174396 304.8530435 2290.05607647 302.99511719 2290.43115234 C274.74019899 2296.13384035 274.74019899 2296.13384035 267 2296 C267 2296.66 267 2297.32 267 2298 C218.47498735 2305.09888667 218.47498735 2305.09888667 202.0625 2306.9375 C201.05018311 2307.05327393 200.03786621 2307.16904785 198.99487305 2307.28833008 C192.9764277 2307.92847994 187.05067825 2308.12566225 181 2308 C181 2308.66 181 2309.32 181 2310 C175.75724092 2310.41102241 170.51431572 2310.81984027 165.27124023 2311.22680664 C163.4958049 2311.36490495 161.72041252 2311.50355686 159.94506836 2311.64282227 C157.36063108 2311.84545151 154.77606602 2312.04632319 152.19140625 2312.24609375 C151.34164215 2312.31194672 150.49187805 2312.37779968 149.61636353 2312.44564819 C143.11129504 2312.93962259 136.60329165 2313.33586698 130.08631897 2313.63609314 C126.75545162 2313.5332919 126.75545162 2313.5332919 124 2315 C122.393108 2315.09600136 120.78198231 2315.12187889 119.17222595 2315.12025452 C118.12749619 2315.12162918 117.08276642 2315.12300385 116.00637817 2315.12442017 C114.85048187 2315.12082489 113.69458557 2315.11722961 112.50366211 2315.11352539 C111.29407333 2315.11367142 110.08448456 2315.11381744 108.83824158 2315.1139679 C105.51193649 2315.11338893 102.18569281 2315.10835973 98.8593986 2315.10139394 C95.38670071 2315.09515978 91.91400207 2315.09455655 88.44129944 2315.09336853 C81.86103807 2315.0902554 75.28079324 2315.08204225 68.70053917 2315.07201904 C61.21093888 2315.06085734 53.72133782 2315.05534731 46.2317313 2315.05032361 C30.82114461 2315.03985962 15.41057443 2315.02226053 0 2315 C0 2314.34 0 2313.68 0 2313 C-1.06661865 2313.01667725 -2.1332373 2313.03335449 -3.23217773 2313.05053711 C-14.06079573 2313.16571962 -24.74918454 2312.67712314 -35.53833008 2311.77319336 C-38.11929846 2311.55775901 -40.70108041 2311.35537868 -43.28320312 2311.15429688 C-44.92974776 2311.02157879 -46.57623485 2310.88814438 -48.22265625 2310.75390625 C-49.37701927 2310.66321617 -49.37701927 2310.66321617 -50.55470276 2310.57069397 C-55.88433062 2310.11566938 -55.88433062 2310.11566938 -57 2309 C-59.74955823 2308.62354602 -62.48658674 2308.3047341 -65.24609375 2308.01953125 C-67.03290694 2307.82603572 -68.81968941 2307.63225624 -70.60644531 2307.43823242 C-71.55700806 2307.3364267 -72.5075708 2307.23462097 -73.48693848 2307.12973022 C-90.62111314 2305.28754594 -107.69631043 2303.16724236 -124.75 2300.6875 C-125.67666473 2300.55276276 -126.60332947 2300.41802551 -127.55807495 2300.27920532 C-132.70672462 2299.52837852 -137.85394588 2298.76840632 -143 2298 C-143 2297.34 -143 2296.68 -143 2296 C-143.61061279 2295.96116699 -144.22122559 2295.92233398 -144.8503418 2295.88232422 C-152.58184827 2295.29364883 -160.12760446 2293.99193644 -167.73266602 2292.52587891 C-169.79801264 2292.12779238 -171.86463839 2291.7370452 -173.93164062 2291.34765625 C-180.53205433 2290.09763075 -187.12136459 2288.79346219 -193.69921875 2287.4296875 C-194.79451904 2287.20265137 -195.88981934 2286.97561523 -197.01831055 2286.74169922 C-200 2286 -200 2286 -202.36303711 2285.03491211 C-205.99036066 2283.61131943 -209.69183711 2282.84394216 -213.4921875 2282.01171875 C-215.18493896 2281.63105111 -216.87764581 2281.25018503 -218.5703125 2280.86914062 C-221.20639355 2280.28066886 -223.842956 2279.69457118 -226.48046875 2279.11254883 C-236.40574353 2276.915587 -246.06034728 2274.49172299 -255.66259766 2271.14477539 C-260.46779178 2269.49652702 -265.3403221 2268.1712129 -270.25 2266.875 C-272.046875 2266.39322917 -273.84375 2265.91145833 -275.640625 2265.4296875 C-276.50880859 2265.19862305 -277.37699219 2264.96755859 -278.27148438 2264.72949219 C-282.85264705 2263.50467883 -287.42618047 2262.25190968 -292 2261 C-292 2260.34 -292 2259.68 -292 2259 C-292.56960449 2258.90348145 -293.13920898 2258.80696289 -293.72607422 2258.70751953 C-301.0701572 2257.3614697 -308.04036507 2255.20633917 -315.125 2252.875 C-316.27226563 2252.50246094 -317.41953125 2252.12992188 -318.6015625 2251.74609375 C-321.40271213 2250.83572012 -324.20209017 2249.92027251 -327 2249 C-327 2248.34 -327 2247.68 -327 2247 C-328.23105469 2246.75894531 -329.46210937 2246.51789062 -330.73046875 2246.26953125 C-336.77652518 2244.9232051 -342.50550129 2242.81802409 -348.3125 2240.6875 C-349.8893457 2240.11999023 -349.8893457 2240.11999023 -351.49804688 2239.54101562 C-357.79291512 2237.25443472 -363.98934874 2234.79383064 -370.15893555 2232.18920898 C-374.32644369 2230.44477896 -378.53437354 2228.81137652 -382.75 2227.1875 C-383.554375 2226.87619141 -384.35875 2226.56488281 -385.1875 2226.24414062 C-387.1244684 2225.49471833 -389.06215306 2224.74714765 -391 2224 C-391 2223.34 -391 2222.68 -391 2222 C-392.13179687 2221.74605469 -393.26359375 2221.49210937 -394.4296875 2221.23046875 C-399.19941499 2220.03436786 -403.61542161 2218.25317884 -408.125 2216.3125 C-408.95684814 2215.95800781 -409.78869629 2215.60351562 -410.64575195 2215.23828125 C-417.91643019 2212.10479029 -424.96373313 2208.63032904 -432 2205 C-434.51686285 2203.72121658 -437.03882823 2202.4527861 -439.5625 2201.1875 C-440.21976074 2200.85733887 -440.87702148 2200.52717773 -441.55419922 2200.18701172 C-446.22045753 2197.85554552 -450.92213155 2195.60738946 -455.64086914 2193.38427734 C-471.01104181 2186.13952265 -485.99072311 2178.35810922 -500.59619141 2169.66625977 C-503.95798399 2167.68014713 -507.2351784 2165.83500353 -510.859375 2164.37109375 C-513.76334968 2163.10331376 -514.92887583 2162.24322332 -517 2160 C-518.57786478 2159.07841526 -520.18649787 2158.20872223 -521.8125 2157.375 C-526.39688266 2154.94333671 -530.73369222 2152.28687164 -535.0625 2149.4375 C-539.78490195 2146.33564907 -544.54749757 2143.66022917 -549.6484375 2141.234375 C-553.11247536 2139.41604283 -556.18313928 2137.12747479 -559.34375 2134.83203125 C-563.19119692 2132.17842448 -567.2479501 2129.93549988 -571.3359375 2127.67578125 C-573.97756152 2126.01411453 -575.80424113 2124.19575887 -578 2122 C-579.80174085 2120.88476583 -581.63890933 2119.82559371 -583.5 2118.8125 C-589.13506336 2115.61998547 -594.18286466 2111.95559985 -599.3046875 2108.00390625 C-601.47850454 2106.38772054 -603.55754804 2105.02239856 -605.9375 2103.75 C-609 2102 -609 2102 -611.3125 2099.625 C-614.49671186 2096.51483957 -617.8962678 2094.63635281 -621.79296875 2092.52734375 C-624 2091 -624 2091 -625.05078125 2088.87890625 C-625.36402344 2088.25886719 -625.67726563 2087.63882813 -626 2087 C-627.32756862 2086.64440126 -628.66241011 2086.31581984 -630 2086 C-632.07232517 2084.54937238 -634.03244739 2083.08044493 -636 2081.5 C-637.15952599 2080.58643906 -638.31969696 2079.67369625 -639.48046875 2078.76171875 C-640.06618652 2078.29942871 -640.6519043 2077.83713867 -641.25537109 2077.36083984 C-643.90465893 2075.29435085 -646.60937307 2073.30807401 -649.3125 2071.3125 C-653.36164991 2068.29153737 -657.17578324 2065.14188699 -660.921875 2061.7578125 C-664.30155518 2058.89906047 -667.94512316 2056.41317987 -671.58203125 2053.89453125 C-673.89106805 2052.08535056 -675.31164642 2050.36769112 -677 2048 C-678.65071396 2046.97388051 -680.31970006 2045.97691857 -682 2045 C-684.12577247 2043.42572511 -686.03332925 2041.78372464 -688 2040 C-688 2039.34 -688 2038.68 -688 2038 C-688.56332031 2037.74476562 -689.12664062 2037.48953125 -689.70703125 2037.2265625 C-699.62701266 2031.92013292 -707.88800138 2022.49503434 -715.97265625 2014.80859375 C-719.10195107 2011.83630885 -722.27244801 2008.92751885 -725.5 2006.0625 C-729.35688672 2002.63052453 -733.00851233 1999.0426019 -736.6015625 1995.3359375 C-738.51853317 1993.46892046 -740.45636253 1991.73916748 -742.48828125 1990.00390625 C-747.86995507 1985.33094052 -752.87299899 1980.27668729 -757.90014648 1975.23022461 C-759.5592732 1973.56573723 -761.22368051 1971.90666553 -762.88867188 1970.24804688 C-767.95115932 1965.18848974 -772.92385461 1960.09728258 -777.57543945 1954.65161133 C-779.55650541 1952.35479706 -781.6646164 1950.20286037 -783.8125 1948.0625 C-784.56144531 1947.31097656 -785.31039063 1946.55945312 -786.08203125 1945.78515625 C-787.88220438 1943.94138867 -787.88220438 1943.94138867 -790 1943 C-790.37125 1942.29875 -790.7425 1941.5975 -791.125 1940.875 C-793.33527844 1937.48590639 -795.9273535 1935.36136764 -799.0625 1932.84375 C-801 1931 -801 1931 -802.38671875 1928.6796875 C-804.4621254 1925.23240188 -807.04964605 1922.53120757 -809.8125 1919.625 C-810.89141087 1918.47208909 -811.96954452 1917.31845033 -813.046875 1916.1640625 C-813.55927734 1915.6165332 -814.07167969 1915.06900391 -814.59960938 1914.50488281 C-817.87499076 1910.98510408 -821.09463571 1907.52101201 -823.5625 1903.375 C-825.69195577 1899.85676872 -828.62079022 1897.27311672 -831.625 1894.5 C-833 1893 -833 1893 -834.5 1890.4375 C-835.91804659 1887.75281489 -835.91804659 1887.75281489 -839 1886 C-839 1885.01 -839 1884.02 -839 1883 C-839.598125 1882.773125 -840.19625 1882.54625 -840.8125 1882.3125 C-843.59832728 1880.64100363 -844.37537232 1878.7943596 -846 1876 C-846.825 1875.175 -847.65 1874.35 -848.5 1873.5 C-850.92528433 1871.07471567 -852.28763556 1868.94526683 -854 1866 C-857.32954803 1860.77071036 -857.32954803 1860.77071036 -862 1857 C-862.96216253 1855.30792106 -863.92117418 1853.61387453 -864.85546875 1851.90625 C-865.97904287 1850.03490471 -867.19923137 1848.46117641 -868.625 1846.8125 C-870.57152869 1844.50740023 -871.7174866 1842.66368167 -873 1840 C-873.66 1839.67 -874.32 1839.34 -875 1839 C-875 1838.01 -875 1837.02 -875 1836 C-875.66 1836 -876.32 1836 -877 1836 C-878.23662862 1834.25588699 -879.39102135 1832.45293515 -880.5 1830.625 C-882.94216507 1826.57056853 -882.94216507 1826.57056853 -886 1823 C-886.95914183 1821.61894827 -887.89383295 1820.22079961 -888.8125 1818.8125 C-890.74959501 1815.86412745 -892.72611196 1812.96952323 -894.8125 1810.125 C-897 1807 -897 1807 -898 1804 C-898.60585938 1803.40445313 -899.21171875 1802.80890625 -899.8359375 1802.1953125 C-902.3558192 1799.63904262 -903.87886054 1797.00574343 -905.625 1793.875 C-907.94186904 1789.65640842 -907.94186904 1789.65640842 -911 1786 C-913.11726442 1783.33089539 -914.86525468 1780.61155395 -916.5 1777.625 C-917.14582031 1776.449375 -917.14582031 1776.449375 -917.8046875 1775.25 C-918.78873103 1773.39768276 -919.71508057 1771.51483266 -920.625 1769.625 C-921.83532735 1766.99689297 -921.83532735 1766.99689297 -923.6875 1765.3125 C-924.120625 1764.879375 -924.55375 1764.44625 -925 1764 C-925 1763.01 -925 1762.02 -925 1761 C-925.66 1761 -926.32 1761 -927 1761 C-927.47050781 1760.09636719 -927.94101562 1759.19273438 -928.42578125 1758.26171875 C-929.05439878 1757.07016014 -929.68332109 1755.87876228 -930.3125 1754.6875 C-930.62123047 1754.09259766 -930.92996094 1753.49769531 -931.24804688 1752.88476562 C-932.8864069 1749.79775041 -934.49884586 1747.41158113 -937 1745 C-937.84770679 1743.50967677 -938.63516158 1741.98420917 -939.375 1740.4375 C-939.80296875 1739.55835937 -940.2309375 1738.67921875 -940.671875 1737.7734375 C-941.55729167 1735.92447917 -942.44270833 1734.07552083 -943.328125 1732.2265625 C-943.75609375 1731.34742187 -944.1840625 1730.46828125 -944.625 1729.5625 C-945.00914062 1728.75941406 -945.39328125 1727.95632813 -945.7890625 1727.12890625 C-946.86666591 1724.99315813 -946.86666591 1724.99315813 -948.44091797 1723.63842773 C-950.22968451 1721.75862625 -951.09379199 1720.01926866 -952.15625 1717.65625 C-952.73052734 1716.40521484 -952.73052734 1716.40521484 -953.31640625 1715.12890625 C-954.10546875 1713.37630208 -954.89453125 1711.62369792 -955.68359375 1709.87109375 C-956.25787109 1708.62005859 -956.25787109 1708.62005859 -956.84375 1707.34375 C-957.35711914 1706.20196289 -957.35711914 1706.20196289 -957.88085938 1705.03710938 C-959.03308439 1702.93977833 -960.30812396 1701.6689119 -962 1700 C-963.07495117 1698.14648437 -963.07495117 1698.14648437 -964.04296875 1696.09375 C-964.39423828 1695.34996094 -964.74550781 1694.60617187 -965.10742188 1693.83984375 C-965.46384766 1693.06769531 -965.82027344 1692.29554687 -966.1875 1691.5 C-966.55552734 1690.72785156 -966.92355469 1689.95570312 -967.30273438 1689.16015625 C-970 1683.38530554 -970 1683.38530554 -970 1680 C-970.66 1679.67 -971.32 1679.34 -972 1679 C-973.39119774 1676.51888301 -974.68591508 1674.05034013 -975.9375 1671.5 C-976.2979541 1670.77546631 -976.6584082 1670.05093262 -977.02978516 1669.30444336 C-978.91324595 1665.45355403 -980.59237942 1661.66289843 -981.875 1657.5625 C-982.24625 1656.386875 -982.6175 1655.21125 -983 1654 C-983.66 1653.67 -984.32 1653.34 -985 1653 C-988.23531335 1648.44114937 -990.01741324 1643.18462172 -992 1638 C-992.30421875 1637.22269531 -992.6084375 1636.44539063 -992.921875 1635.64453125 C-995 1630.2629717 -995 1630.2629717 -995 1628 C-995.66 1627.67 -996.32 1627.34 -997 1627 C-998.59973265 1624.13502425 -999.74942483 1621.03023982 -1001 1618 C-1001.38091797 1617.08637695 -1001.38091797 1617.08637695 -1001.76953125 1616.15429688 C-1002.60386972 1614.14753491 -1003.42849842 1612.13704843 -1004.25 1610.125 C-1004.65557129 1609.14345947 -1004.65557129 1609.14345947 -1005.06933594 1608.14208984 C-1006.22856933 1605.26340153 -1007 1603.1347521 -1007 1600 C-1007.66 1599.67 -1008.32 1599.34 -1009 1599 C-1012.93935946 1591.10745876 -1019 1578.94365606 -1019 1570 C-1019.66 1570 -1020.32 1570 -1021 1570 C-1023.49617406 1563.91178777 -1025.53030209 1557.67249924 -1027.625 1551.4375 C-1028.04523438 1550.20580078 -1028.46546875 1548.97410156 -1028.8984375 1547.70507812 C-1029.29546875 1546.52236328 -1029.6925 1545.33964844 -1030.1015625 1544.12109375 C-1030.46588379 1543.0427124 -1030.83020508 1541.96433105 -1031.20556641 1540.85327148 C-1032 1538 -1032 1538 -1032 1534 C-1032.66 1534 -1033.32 1534 -1034 1534 C-1036.40148116 1526.94333997 -1038.5871483 1519.83921946 -1040.6875 1512.6875 C-1041.00783203 1511.61693359 -1041.32816406 1510.54636719 -1041.65820312 1509.44335938 C-1042.11163086 1507.89938477 -1042.11163086 1507.89938477 -1042.57421875 1506.32421875 C-1042.84838623 1505.39697998 -1043.12255371 1504.46974121 -1043.4050293 1503.5144043 C-1044 1501 -1044 1501 -1044 1497 C-1044.66 1497 -1045.32 1497 -1046 1497 C-1048.52116817 1488.94675536 -1050.63917602 1480.80974343 -1052.6875 1472.625 C-1053.00783203 1471.36816406 -1053.32816406 1470.11132812 -1053.65820312 1468.81640625 C-1053.96048828 1467.61113281 -1054.26277344 1466.40585938 -1054.57421875 1465.1640625 C-1054.98546997 1463.53138428 -1054.98546997 1463.53138428 -1055.4050293 1461.86572266 C-1056 1459 -1056 1459 -1056 1455 C-1056.66 1455 -1057.32 1455 -1058 1455 C-1061.29573098 1442.32300935 -1064.03415292 1429.56580443 -1066.65087891 1416.73364258 C-1067.16180708 1414.23437208 -1067.67829459 1411.73629791 -1068.1953125 1409.23828125 C-1068.34743195 1408.48307693 -1068.49955139 1407.72787262 -1068.65628052 1406.94978333 C-1069.25218736 1404.07862363 -1069.85123793 1401.35265641 -1070.9934082 1398.64501953 C-1072.61563477 1394.38229759 -1073.17290709 1389.92996409 -1073.91015625 1385.44140625 C-1074.08252304 1384.41949692 -1074.25488983 1383.39758759 -1074.43247986 1382.3447113 C-1074.98107866 1379.08483096 -1075.52189153 1375.82371396 -1076.0625 1372.5625 C-1076.42982571 1370.37165875 -1076.79765872 1368.18090248 -1077.16601562 1365.99023438 C-1077.98716768 1361.10010327 -1078.80414501 1356.20930697 -1079.61418152 1351.31732178 C-1079.93843118 1349.36979763 -1080.27076085 1347.42362117 -1080.60498047 1345.4777832 C-1081.16844371 1341.94342691 -1081.06162489 1338.57424374 -1081 1335 C-1081.66 1335 -1082.32 1335 -1083 1335 C-1082.979375 1334.195625 -1082.95875 1333.39125 -1082.9375 1332.5625 C-1082.70366379 1330.06645115 -1082.70366379 1330.06645115 -1084 1329 C-1084.25320915 1327.59033236 -1084.44743651 1326.16999395 -1084.61669922 1324.74780273 C-1084.78238403 1323.37780624 -1084.78238403 1323.37780624 -1084.95141602 1321.98013306 C-1085.06799561 1320.97477509 -1085.1845752 1319.96941711 -1085.3046875 1318.93359375 C-1085.42851807 1317.88859711 -1085.55234863 1316.84360046 -1085.67993164 1315.76693726 C-1086.08463029 1312.32449625 -1086.48086742 1308.88116602 -1086.875 1305.4375 C-1087.00972717 1304.26762543 -1087.14445435 1303.09775085 -1087.28326416 1301.89242554 C-1089.07856888 1286.21883875 -1090.69301143 1270.54475623 -1091.875 1254.8125 C-1091.96681549 1253.62441238 -1091.96681549 1253.62441238 -1092.06048584 1252.412323 C-1092.88367391 1241.59228793 -1093.13875878 1230.84973729 -1093 1220 C-1093.66 1220 -1094.32 1220 -1095 1220 C-1095.02332902 1203.71929697 -1095.04097919 1187.43859933 -1095.05181217 1171.15788364 C-1095.05697512 1163.59898381 -1095.0640178 1156.04009435 -1095.07543945 1148.48120117 C-1095.08538632 1141.89520334 -1095.09185343 1135.30921302 -1095.09408849 1128.72320789 C-1095.0953956 1125.23386929 -1095.09848142 1121.74455216 -1095.10573006 1118.25522041 C-1095.11374398 1114.36618768 -1095.11399114 1110.47717622 -1095.11352539 1106.58813477 C-1095.11712067 1105.42288773 -1095.12071594 1104.25764069 -1095.12442017 1103.05708313 C-1095.1230455 1102.00393921 -1095.12167084 1100.95079529 -1095.12025452 1099.86573792 C-1095.12163721 1098.48443113 -1095.12163721 1098.48443113 -1095.12304783 1097.07521915 C-1095 1095 -1095 1095 -1094 1094 C-1093.75504624 1091.32946312 -1093.570693 1088.67648832 -1093.421875 1086 C-1093.31486234 1084.2508651 -1093.20733339 1082.50176173 -1093.09936523 1080.75268555 C-1093.01463455 1079.34906265 -1093.01463455 1079.34906265 -1092.92819214 1077.91708374 C-1091.82137775 1059.79804499 -1090.30615364 1041.74354725 -1088.4375 1023.6875 C-1088.33167603 1022.6574585 -1088.22585205 1021.62741699 -1088.11682129 1020.56616211 C-1084.61226171 986.61226171 -1084.61226171 986.61226171 -1083 985 C-1082.95919217 983.00041636 -1082.95745644 980.99954746 -1083 979 C-1082.34 979 -1081.68 979 -1081 979 C-1081.03013184 977.87762939 -1081.06026367 976.75525879 -1081.09130859 975.59887695 C-1081.08746565 970.76769463 -1080.36653944 966.16783164 -1079.5390625 961.41796875 C-1079.38843353 960.52314285 -1079.23780457 959.62831696 -1079.08261108 958.70637512 C-1078.60285202 955.86567367 -1078.11401217 953.02662154 -1077.625 950.1875 C-1077.30410255 948.29371882 -1076.98378501 946.39983927 -1076.6640625 944.50585938 C-1072.43337408 919.51700525 -1072.43337408 919.51700525 -1071 914 C-1070.34 914 -1069.68 914 -1069 914 C-1068.9175 912.73929688 -1068.835 911.47859375 -1068.75 910.1796875 C-1067.90156793 901.70432912 -1065.84112343 893.4276662 -1064 885.125 C-1063.62710071 883.42198516 -1063.25470092 881.71886087 -1062.8828125 880.015625 C-1060.16177865 867.58815514 -1060.16177865 867.58815514 -1059 863 C-1058.34 863 -1057.68 863 -1057 863 C-1057.495 861.515 -1057.495 861.515 -1058 860 C-1057.34740519 857.95577918 -1056.68162193 855.91512322 -1055.96191406 853.89355469 C-1054.81655049 850.44816151 -1053.89107128 846.96089244 -1052.9921875 843.4453125 C-1052.81971497 842.77232117 -1052.64724243 842.09932983 -1052.46954346 841.40594482 C-1051.93553416 839.31292215 -1051.40503104 837.21903331 -1050.875 835.125 C-1050.33580975 833.00485962 -1049.79568058 830.88496441 -1049.25442505 828.76535034 C-1048.76788343 826.85851881 -1048.28401352 824.95100616 -1047.80029297 823.04345703 C-1047.26574148 821.01059588 -1046.66470066 818.99410199 -1046 817 C-1045.34 817 -1044.68 817 -1044 817 C-1043.84543335 816.13362915 -1043.84543335 816.13362915 -1043.68774414 815.24975586 C-1042.36434641 808.21455963 -1040.48366998 801.41822416 -1038.4375 794.5625 C-1037.96280273 792.95084961 -1037.96280273 792.95084961 -1037.47851562 791.30664062 C-1035.22420158 783.67260474 -1035.22420158 783.67260474 -1034 780 C-1033.34 780 -1032.68 780 -1032 780 C-1031.62488281 778.14568359 -1031.62488281 778.14568359 -1031.2421875 776.25390625 C-1029.92771296 770.35032157 -1028.04781451 764.66662949 -1026.125 758.9375 C-1025.78597656 757.90044922 -1025.44695312 756.86339844 -1025.09765625 755.79492188 C-1023.37731993 750.6371835 -1021.50505753 745.81155656 -1018.97314453 741.00415039 C-1017.06207314 737.06837892 -1015.76390117 732.89212118 -1014.375 728.75 C-1013.78111839 726.99395352 -1013.18485013 725.23871198 -1012.5859375 723.484375 C-1012.3286084 722.71834961 -1012.0712793 721.95232422 -1011.80615234 721.16308594 C-1011.00696339 719.01868431 -1010.06120794 717.02578555 -1009 715 C-1008.34 715 -1007.68 715 -1007 715 C-1006.9175 714.23171875 -1006.835 713.4634375 -1006.75 712.671875 C-1005.72125104 707.63529155 -1003.86937944 703.02802928 -1002 698.25 C-1001.63132812 697.29222656 -1001.26265625 696.33445312 -1000.8828125 695.34765625 C-998.19041149 688.38082298 -998.19041149 688.38082298 -997 686 C-996.34 686 -995.68 686 -995 686 C-994.86464844 685.46375 -994.72929688 684.9275 -994.58984375 684.375 C-992.25646868 675.87983805 -988.62453104 668.00375896 -985 660 C-984.34 660 -983.68 660 -983 660 C-982.505 658.2984375 -982.505 658.2984375 -982 656.5625 C-979.42353922 648.74514095 -975.57532203 641.39692514 -972 634 C-971.34 634 -970.68 634 -970 634 C-969.62875 632.783125 -969.2575 631.56625 -968.875 630.3125 C-963.60855512 614.53824366 -963.60855512 614.53824366 -959.55078125 610.58984375 C-957.0210453 607.99638649 -955.7303149 604.67494935 -954.1875 601.4375 C-951.54150515 596.01067098 -948.77419694 590.78401377 -945.578125 585.65625 C-943.11178213 581.50497983 -940.91177465 577.21090666 -938.71484375 572.91186523 C-936.21534374 568.10767187 -936.21534374 568.10767187 -934 567 C-933.10682948 565.42836341 -932.28256009 563.81703823 -931.5 562.1875 C-931.0771875 561.31480469 -930.654375 560.44210937 -930.21875 559.54296875 C-929.8165625 558.70378906 -929.414375 557.86460937 -929 557 C-928.33602648 555.66532349 -927.67038845 554.33146594 -927 553 C-926.34 553 -925.68 553 -925 553 C-924.896875 552.236875 -924.79375 551.47375 -924.6875 550.6875 C-924 548 -924 548 -922.7109375 546.765625 C-920.22947969 544.20485119 -918.65838703 541.15626536 -916.9375 538.0625 C-916.58623047 537.44181641 -916.23496094 536.82113281 -915.87304688 536.18164062 C-914.47641495 533.70255296 -913.10899763 531.22476063 -911.8671875 528.6640625 C-911 527 -911 527 -909.1875 525.3125 C-906.02861744 521.97310986 -904.11453123 518.05574024 -902 514 C-901.34 514 -900.68 514 -900 514 C-900 513.01 -900 512.02 -900 511 C-898.66666667 509.66666667 -897.33333333 508.33333333 -896 507 C-895.0727907 505.3532595 -894.14656849 503.70595145 -893.2265625 502.05517578 C-890.87978776 498.12302018 -888.09343585 494.49270389 -885.375 490.8125 C-884.2134053 489.23769485 -883.05444802 487.66094011 -881.8984375 486.08203125 C-881.38974121 485.39343018 -880.88104492 484.7048291 -880.35693359 483.99536133 C-879.0398684 482.05862621 -877.99387573 480.11783835 -877 478 C-876.34 478 -875.68 478 -875 478 C-875 477.01 -875 476.02 -875 475 C-873.33333333 473.33333333 -871.66666667 471.66666667 -870 470 C-868.65482577 467.99596492 -867.42134747 465.95494161 -866.2109375 463.8671875 C-864.97570464 461.96253813 -863.62337239 460.57711049 -862 459 C-861.14522199 457.91234977 -860.31364121 456.80625666 -859.5 455.6875 C-856.54558649 451.69645017 -853.5047477 447.77947064 -850.4375 443.875 C-849.97859375 443.28936279 -849.5196875 442.70372559 -849.046875 442.1003418 C-846.82192437 439.27173783 -844.56782212 436.48780451 -842.22265625 433.7578125 C-839.85594994 431.14967817 -839.85594994 431.14967817 -839 428 C-837.33784732 426.66104368 -835.67036393 425.32869858 -834 424 C-831.35335572 421.20631993 -829.23515563 418.7054669 -828 415 C-827.29875 414.484375 -826.5975 413.96875 -825.875 413.4375 C-823.10737889 411.09103862 -821.56248012 409.05138381 -819.5625 406.0625 C-817.50709384 403.00849782 -815.65871872 400.45384659 -812.75 398.1875 C-809.92104067 396.19970197 -809.92104067 396.19970197 -808.5 393.5 C-807.06063459 391.10105766 -805.95776161 390.01770795 -803.8125 388.3125 C-802.884375 387.549375 -801.95625 386.78625 -801 386 C-801 385.34 -801 384.68 -801 384 C-799.87460044 382.84049742 -798.74096724 381.68801311 -797.5703125 380.57421875 C-795.0596783 378.05733919 -792.82593153 375.30339014 -790.55078125 372.57421875 C-790.03902344 372.05472656 -789.52726562 371.53523438 -789 371 C-788.34 371 -787.68 371 -787 371 C-786.7628125 370.43796875 -786.525625 369.8759375 -786.28125 369.296875 C-784.71052303 366.48105958 -782.78528536 364.52044584 -780.5 362.25 C-779.7059375 361.45078125 -778.911875 360.6515625 -778.09375 359.828125 C-776 358 -776 358 -774 358 C-773.80575439 357.31897217 -773.61150879 356.63794434 -773.41137695 355.9362793 C-771.45641883 351.86911421 -768.60174672 349.17263017 -765.41796875 346.01953125 C-764.76677567 345.36546799 -764.11558258 344.71140472 -763.44465637 344.03752136 C-762.06892304 342.65975092 -760.68941136 341.28574424 -759.30639648 339.9152832 C-757.19484984 337.81979395 -755.099772 335.70879663 -753.00585938 333.59570312 C-751.66502332 332.25684956 -750.32325691 330.91892695 -748.98046875 329.58203125 C-748.35633591 328.95182571 -747.73220306 328.32162018 -747.0891571 327.6723175 C-743.87032223 324.50474465 -741.3653514 322.44444349 -737 321 C-735.88744732 319.129399 -735.88744732 319.129399 -735 317 C-733.71816519 315.53657192 -732.3806979 314.12054571 -731 312.75 C-730.29875 312.04359375 -729.5975 311.3371875 -728.875 310.609375 C-727 309 -727 309 -725 309 C-724.76925781 308.42121094 -724.53851562 307.84242188 -724.30078125 307.24609375 C-722.67349767 304.4362197 -720.77112805 303.01862019 -718.1875 301.0625 C-715.46510936 298.95371524 -712.93715838 296.93715838 -710.5 294.5 C-707.36608355 291.36608355 -703.92067344 288.75139295 -700.40234375 286.0625 C-697.89853314 283.91288699 -696.03245434 281.58911381 -694 279 C-692.35666496 277.96210419 -690.68756133 276.96432076 -689 276 C-686.23645505 273.80044382 -683.58949985 271.59802568 -681.109375 269.08203125 C-678.9398573 266.94063692 -676.68462118 265.03908209 -674.3125 263.125 C-673.35214844 262.34640625 -672.39179687 261.5678125 -671.40234375 260.765625 C-670.86722168 260.33185547 -670.33209961 259.89808594 -669.78076172 259.45117188 C-667.04518104 257.2219024 -664.32825363 254.97018784 -661.60888672 252.72119141 C-643.44287997 237.70792987 -643.44287997 237.70792987 -639.9140625 235.9765625 C-637.75771413 235.00550725 -637.75771413 235.00550725 -635.6875 232.625 C-633.23557665 230.23009812 -630.99437436 228.82310846 -628.00390625 227.21484375 C-624.64436478 225.17816267 -621.70562246 222.62221805 -618.66796875 220.140625 C-615.13389121 217.30508402 -611.47970846 214.65904087 -607.80078125 212.015625 C-605.89320978 210.64281206 -603.9950732 209.25681527 -602.10546875 207.859375 C-588.7587963 198 -588.7587963 198 -585 198 C-584.67 197.01 -584.34 196.02 -584 195 C-582.390625 193.9296875 -582.390625 193.9296875 -580.25 192.875 C-575.6169 190.43768199 -571.43978272 187.55633925 -567.17773438 184.5246582 C-562.43365941 181.19979237 -557.49719448 178.32170146 -552.40551758 175.56323242 C-549.12204194 173.88741297 -549.12204194 173.88741297 -547 171 C-545.09734313 170.03198159 -543.1913399 169.06973276 -541.265625 168.1484375 C-538.29712315 166.64371415 -535.54325615 164.87316782 -532.76171875 163.05078125 C-531 162 -531 162 -528 161 C-526.99700152 160.0030075 -525.99728757 159.00270509 -525 158 C-523.64005932 157.18088122 -522.24674366 156.41571725 -520.83203125 155.6953125 C-520.02056641 155.27636719 -519.20910156 154.85742188 -518.37304688 154.42578125 C-517.10557617 153.78189453 -517.10557617 153.78189453 -515.8125 153.125 C-510.35039908 150.33638641 -505.03989425 147.47150193 -499.86987305 144.16992188 C-496.98311345 142.36376546 -494.00929156 140.78282755 -491 139.1875 C-490.35901367 138.8476709 -489.71802734 138.5078418 -489.05761719 138.15771484 C-483.83331926 135.40347715 -478.55587295 132.76208974 -473.26367188 130.14135742 C-467.96548868 127.50820117 -462.72834168 124.76887419 -457.5 122 C-444.26632954 115.01526873 -431.02396903 108.44391551 -417.24316406 102.58789062 C-411.83769419 100.28231151 -406.56965089 97.81459618 -401.33056641 95.15356445 C-397.9906968 93.50042347 -394.58584961 92.06529622 -391.125 90.6875 C-390.48820312 90.42388672 -389.85140625 90.16027344 -389.1953125 89.88867188 C-385.85006598 88.54708863 -383.67006217 88 -380 88 C-380 87.34 -380 86.68 -380 86 C-376.85595863 84.72470247 -373.70944782 83.45560671 -370.5625 82.1875 C-369.68400391 81.83107422 -368.80550781 81.47464844 -367.90039062 81.10742188 C-362.96310858 79.1215778 -358.0153444 77.30457818 -352.95483398 75.65942383 C-350.48668832 74.82684466 -348.12769151 73.81173646 -345.75 72.75 C-339.90709388 70.27188028 -333.95373933 68.20517863 -327.9375 66.1875 C-326.5438623 65.71618652 -326.5438623 65.71618652 -325.12207031 65.23535156 C-324.24518555 64.94499023 -323.36830078 64.65462891 -322.46484375 64.35546875 C-321.677146 64.09403076 -320.88944824 63.83259277 -320.07788086 63.56323242 C-318 63 -318 63 -315 63 C-315 62.34 -315 61.68 -315 61 C-313.92105469 60.68248779 -312.84210937 60.36497559 -311.73046875 60.0378418 C-307.69654981 58.84988926 -303.66378693 57.65805246 -299.63134766 56.46508789 C-297.89174791 55.95101987 -296.15184366 55.43798108 -294.41162109 54.92602539 C-291.89858958 54.18651726 -289.38670607 53.44321455 -286.875 52.69921875 C-286.10696045 52.47409103 -285.3389209 52.24896332 -284.54760742 52.01701355 C-280.95797618 50.95005359 -277.43590626 49.81434239 -273.94140625 48.46606445 C-270.04260547 46.97196272 -266.10621978 45.87043251 -262.0625 44.84375 C-261.33812744 44.65534546 -260.61375488 44.46694092 -259.86743164 44.27282715 C-256.81006171 43.47776602 -253.7501511 42.69269209 -250.69042969 41.90673828 C-248.43853366 41.32673353 -246.18801313 40.74159367 -243.9375 40.15625 C-242.92151733 39.89829651 -242.92151733 39.89829651 -241.88500977 39.63513184 C-238.53555071 38.76343109 -235.32266182 37.77261883 -232.10009766 36.5065918 C-227.64559138 34.78999205 -223.11931845 33.74811202 -218.4609375 32.73828125 C-217.57644928 32.54276169 -216.69196106 32.34724213 -215.78067017 32.14579773 C-213.92408332 31.73709454 -212.06684113 31.33135797 -210.20898438 30.9284668 C-207.3742167 30.31232975 -204.54255871 29.68315506 -201.7109375 29.05273438 C-199.89860939 28.65546502 -198.08611476 28.25895442 -196.2734375 27.86328125 C-195.4326767 27.6758284 -194.59191589 27.48837555 -193.72567749 27.29524231 C-189.40157161 26.36735635 -185.45331783 25.78573405 -181 26 C-181 25.34 -181 24.68 -181 24 C-175.23075456 22.90811057 -169.45985677 21.82532164 -163.6875 20.75 C-162.8289743 20.59004547 -161.97044861 20.43009094 -161.08590698 20.26528931 C-148.85219643 17.99438668 -136.62179798 15.91748302 -124.28979492 14.24316406 C-123.28795166 14.10491211 -122.2861084 13.96666016 -121.25390625 13.82421875 C-120.40127197 13.71166748 -119.5486377 13.59911621 -118.67016602 13.4831543 C-115.89069725 13.0338786 -115.89069725 13.0338786 -112.83959961 12.03613281 C-108.02313856 10.73638965 -103.26154732 10.16172701 -98.3125 9.59765625 C-97.27330414 9.47524063 -96.23410828 9.35282501 -95.16342163 9.22669983 C-91.77644026 8.83105731 -88.3884077 8.44572376 -85 8.0625 C-83.84316711 7.93027039 -82.68633423 7.79804077 -81.4944458 7.6618042 C-66.14021048 5.91341975 -50.78232922 4.32412228 -35.375 3.125 C-34.22837891 3.03304855 -34.22837891 3.03304855 -33.05859375 2.9392395 C-22.02442546 2.06834978 -11.0662399 1.86843308 0 2 C0 1.34 0 0.68 0 0 Z M21 440 C19.4936178 440.07328601 17.98468675 440.10858469 16.4765625 440.09765625 C15.68378906 440.09443359 14.89101562 440.09121094 14.07421875 440.08789062 C13.26597656 440.07951172 12.45773437 440.07113281 11.625 440.0625 C10.79355469 440.05798828 9.96210937 440.05347656 9.10546875 440.04882812 C7.07028103 440.03713164 5.03513077 440.01919935 3 440 C3 440.66 3 441.32 3 442 C2.01 441.67 1.02 441.34 0 441 C-4.49364234 441.11453313 -8.96499597 441.62570951 -13.4375 442.0625 C-14.10929291 442.12702362 -14.78108582 442.19154724 -15.47323608 442.25802612 C-36.12064501 444.27339192 -56.69640241 447.76092343 -77 452 C-77 452.66 -77 453.32 -77 454 C-77.64251709 454.10304443 -78.28503418 454.20608887 -78.94702148 454.31225586 C-86.47089437 455.5909585 -93.73008899 457.46195698 -101.0625 459.5625 C-102.18849609 459.87896484 -103.31449219 460.19542969 -104.47460938 460.52148438 C-109.85934508 461.93433307 -109.85934508 461.93433307 -115 464 C-115 464.66 -115 465.32 -115 466 C-115.61456055 466.10159424 -116.22912109 466.20318848 -116.86230469 466.30786133 C-123.04291323 467.42265823 -128.51123951 469.16410757 -134.25 471.6875 C-135.06992432 472.04054199 -135.88984863 472.39358398 -136.73461914 472.75732422 C-142.86450311 475.42685731 -148.86281789 478.30036633 -154.80859375 481.359375 C-156.86978179 482.41898207 -158.94478117 483.45232766 -161.03515625 484.453125 C-167.37705347 487.49456188 -173.26232056 490.94532689 -179.10546875 494.84130859 C-182.63002511 497.18241467 -186.21895969 499.11220787 -190 501 C-190.639375 501.639375 -191.27875 502.27875 -191.9375 502.9375 C-194.12523632 505.12523632 -196.42583208 506.37263874 -199.10717773 507.87329102 C-202.12373595 509.6689077 -204.82774917 511.80648955 -207.5625 514 C-208.16908447 514.48436523 -208.77566895 514.96873047 -209.40063477 515.46777344 C-211.27293978 516.9714268 -213.13679909 518.48508892 -215 520 C-215.53979492 520.43248047 -216.07958984 520.86496094 -216.63574219 521.31054688 C-225.19710006 528.19997187 -233.02818397 535.82094383 -240.8125 543.5625 C-241.54471268 544.28681213 -241.54471268 544.28681213 -242.29171753 545.02575684 C-248.99109149 551.66916288 -255.13471009 558.607911 -261 566 C-261.87257517 567.05517641 -262.74799898 568.10801956 -263.62890625 569.15625 C-264.26699219 569.9296875 -264.90507813 570.703125 -265.5625 571.5 C-266.55443359 572.69109375 -266.55443359 572.69109375 -267.56640625 573.90625 C-269.28247991 575.98964012 -269.28247991 575.98964012 -269 579 C-269.89332031 579.33644531 -269.89332031 579.33644531 -270.8046875 579.6796875 C-273.67367209 581.40516222 -274.53257957 583.18822463 -276.125 586.125 C-278.51288764 590.41501655 -280.98634957 594.57958428 -283.6550293 598.70019531 C-288.93635771 606.88409275 -293.17073637 615.29907265 -297.16113281 624.17285156 C-298.2623634 626.57145742 -299.46808861 628.909639 -300.6875 631.25 C-306.04749248 641.68069644 -306.04749248 641.68069644 -308 653 C-308.66 653.33 -309.32 653.66 -310 654 C-313.4587732 660.63658163 -314.91511964 667.96107234 -316.6875 675.1875 C-317.00783203 676.45787109 -317.32816406 677.72824219 -317.65820312 679.03710938 C-319.42130624 685.93784163 -319.42130624 685.93784163 -320 693 C-320.66 693.33 -321.32 693.66 -322 694 C-321.67 695.32 -321.34 696.64 -321 698 C-321.66 698 -322.32 698 -323 698 C-322.95875 698.70125 -322.9175 699.4025 -322.875 700.125 C-323 703 -323 703 -323.91015625 705.4375 C-325.46242959 710.5115978 -325.9634994 715.61393656 -326.5625 720.875 C-326.68818359 721.90625 -326.81386719 722.9375 -326.94335938 724 C-328.86162713 740.35047071 -329.14010112 756.5598519 -329.09765625 773 C-329.09618173 774.9296872 -329.09516417 776.85937481 -329.09460449 778.7890625 C-329.08941068 785.85938119 -329.0754497 792.92969126 -329.0625 800 C-329.0315625 823.76 -329.0315625 823.76 -329 848 C-385.76 848 -442.52 848 -501 848 C-501 929.84 -501 1011.68 -501 1096 C-444.24 1096 -387.48 1096 -329 1096 C-329 1318.09 -329 1540.18 -329 1769 C-229.67 1769 -130.34 1769 -28 1769 C-28 1546.91 -28 1324.82 -28 1096 C67.7 1096 163.4 1096 262 1096 C262 1318.09 262 1540.18 262 1769 C360.34 1769 458.68 1769 560 1769 C561.28874581 1767.93514122 561.28874581 1767.93514122 561.12467116 1765.4551025 C561.12451518 1764.30724109 561.1243592 1763.15937967 561.1241985 1761.97673458 C561.12547658 1761.33658336 561.12675467 1760.69643213 561.12807148 1760.03688239 C561.13116911 1757.8608877 561.1270502 1755.68496364 561.12304783 1753.50897121 C561.12378655 1751.93881173 561.12496416 1750.3686524 561.12654433 1748.79849353 C561.12963423 1744.44354184 561.12642106 1740.08861323 561.12226619 1735.73366324 C561.11884965 1731.01109132 561.1211994 1726.28852188 561.12284368 1721.5659495 C561.12492362 1713.27576884 561.12326312 1704.98559533 561.11920547 1696.6954155 C561.11318852 1684.36807911 561.11286798 1672.04074726 561.11374746 1659.71340968 C561.11506367 1638.98027872 561.11171121 1618.24715095 561.10573006 1597.51402092 C561.09982011 1576.97523928 561.09596554 1556.43645896 561.09487724 1535.89767647 C561.0948085 1534.62230617 561.09473976 1533.34693587 561.09466894 1532.03291799 C561.09433062 1525.55638563 561.09402923 1519.07985327 561.09374207 1512.6033209 C561.0916397 1466.68826432 561.08489767 1420.77320984 561.07543945 1374.8581543 C561.07314784 1363.72353109 561.07087249 1352.58890789 561.06866455 1341.45428467 C561.0685276 1340.76373449 561.06839065 1340.07318431 561.06824955 1339.36170836 C561.06190869 1307.27620784 561.0581917 1275.19070717 561.05513173 1243.10520618 C561.05493116 1241.00645092 561.05472886 1238.90769565 561.05452599 1236.80894039 C561.05218917 1212.62454778 561.05001186 1188.44015516 561.04788104 1164.25576254 C561.03848753 1058.83717339 561.01841873 953.41858875 561 848 C366.63 848 172.26 848 -28 848 C-27.67 821.6 -27.34 795.2 -27 768 C-26.34 767.67 -25.68 767.34 -25 767 C-24.63333275 765.34034822 -24.31058869 763.67105462 -24 762 C-23.11259698 759.05964968 -22.11499038 756.15719127 -21.125 753.25 C-20.86847656 752.48945312 -20.61195313 751.72890625 -20.34765625 750.9453125 C-19.83004519 749.41068675 -19.30824138 747.87746871 -18.78222656 746.34570312 C-18.24112789 744.72308263 -17.72925041 743.09053227 -17.24121094 741.45117188 C-16.9940332 740.63712891 -16.74685547 739.82308594 -16.4921875 738.984375 C-16.27675293 738.24413086 -16.06131836 737.50388672 -15.83935547 736.74121094 C-15.42387451 735.87931152 -15.42387451 735.87931152 -15 735 C-14.01 734.67 -13.02 734.34 -12 734 C-10.626439 732.50937427 -10.626439 732.50937427 -9.4375 730.6875 C-9.02371094 730.09324219 -8.60992188 729.49898437 -8.18359375 728.88671875 C-6.95663994 727.027408 -6.95663994 727.027408 -6.09765625 724.98828125 C-4.36248665 721.84521603 -1.63329154 720.0122211 1.125 717.78125 C3.10104955 716.13006047 3.10104955 716.13006047 3.9375 713.90625 C5.43836142 711.21352805 7.12935774 711.06261343 10 710 C11.14726948 709.30339446 12.27633115 708.57634673 13.390625 707.828125 C29.30382606 697.15567425 45.22102842 693.08051455 64 690 C64 689.34 64 688.68 64 688 C161.02 687.505 161.02 687.505 260 687 C260 605.16 260 523.32 260 439 C202.518125 438.9690625 202.518125 438.9690625 143.875 438.9375 C131.76538574 438.928396 119.65577148 438.91929199 107.17919922 438.90991211 C96.34449782 438.90656812 96.34449782 438.90656812 85.50979614 438.90455627 C80.6758885 438.90362289 75.84199179 438.89986848 71.00808716 438.89442444 C64.84582048 438.88757608 58.68356974 438.88550688 52.5212996 438.88692772 C50.25745309 438.88663052 47.99360604 438.88464129 45.72976279 438.88078487 C42.6755243 438.87582292 39.62134803 438.87700578 36.56710815 438.87974548 C35.67824984 438.87683282 34.78939152 438.87392015 33.8735981 438.87091923 C29.46029325 438.8815844 25.34902363 439.14726505 21 440 Z " fill="#FFFFFF" transform="translate(1440,345)"/>
</svg>
