<?xml version="1.0" encoding="UTF-8"?>
<svg version="1.1" xmlns="http://www.w3.org/2000/svg" width="2000" height="2000">
<path d="M0 0 C151.47 0 302.94 0 459 0 C459 0.66 459 1.32 459 2 C460.09610596 1.99492432 461.19221191 1.98984863 462.3215332 1.98461914 C478.67687654 1.93508673 495.02822633 2.1459601 511.3815918 2.37231445 C515.43541097 2.42814506 519.4892826 2.4780207 523.54319286 2.52671719 C526.68724736 2.56553579 529.83123247 2.60863568 532.975214 2.65294075 C534.47235323 2.67328959 535.96951546 2.69201468 537.46669579 2.70907402 C539.53802953 2.73306307 541.60918997 2.76309906 543.68041992 2.79467773 C545.44406136 2.81799416 545.44406136 2.81799416 547.24333191 2.84178162 C550 3 550 3 552 4 C553.35258079 4.10288112 554.70997022 4.14585724 556.06640625 4.15771484 C556.92580811 4.1680928 557.78520996 4.17847076 558.6706543 4.18916321 C560.10211792 4.19994148 560.10211792 4.19994148 561.5625 4.2109375 C563.68490156 4.23725338 565.80729714 4.26405495 567.9296875 4.29125977 C569.65010254 4.31121506 569.65010254 4.31121506 571.40527344 4.33157349 C601.94718002 4.70053855 632.45283265 5.80954537 662.97265625 6.98388672 C664.28438057 7.03416818 664.28438057 7.03416818 665.62260437 7.08546543 C669.75590832 7.24395467 673.88913372 7.40400769 678.0222168 7.56816101 C679.49918466 7.62563982 680.97615398 7.68308111 682.453125 7.74047852 C683.72317383 7.79075699 684.99322266 7.84103546 686.30175781 7.89283752 C689.01584578 7.97148256 691.69675783 7.98697334 694.40917969 7.95372009 C698 8 698 8 699 9 C701.64093601 9.14774467 704.25907196 9.23500951 706.90234375 9.28125 C708.09169273 9.30886414 708.09169273 9.30886414 709.30506897 9.33703613 C711.849135 9.39596804 714.39326933 9.44869826 716.9375 9.5 C720.28009401 9.5675399 723.62246777 9.64124071 726.96484375 9.71875 C728.12583839 9.73911316 728.12583839 9.73911316 729.31028748 9.7598877 C734.77444868 9.88722434 734.77444868 9.88722434 737 11 C738.72353321 11.14270445 740.45210341 11.22639243 742.18066406 11.28125 C743.26228821 11.31798828 744.34391235 11.35472656 745.45831299 11.39257812 C746.63222595 11.42802734 747.80613892 11.46347656 749.015625 11.5 C750.8212088 11.5609082 750.8212088 11.5609082 752.66326904 11.62304688 C756.52538205 11.75309067 760.38765167 11.87715727 764.25 12 C768.09805638 12.12306089 771.94603642 12.24752795 775.79388428 12.37695312 C778.19109881 12.45756268 780.58843952 12.53452175 782.98590088 12.60742188 C784.08013367 12.64416016 785.17436646 12.68089844 786.30175781 12.71875 C787.25947083 12.74904297 788.21718384 12.77933594 789.20391846 12.81054688 C792.18596804 13.01260057 795.05733746 13.48567553 798 14 C799.9928722 14.12823125 801.98829135 14.22097635 803.984375 14.28125 C805.63373047 14.33732422 805.63373047 14.33732422 807.31640625 14.39453125 C809.62107907 14.46532325 811.92576687 14.5356293 814.23046875 14.60546875 C815.32488281 14.64285156 816.41929688 14.68023437 817.546875 14.71875 C819.04492676 14.76418945 819.04492676 14.76418945 820.57324219 14.81054688 C823 15 823 15 825 16 C827.28021459 16.20154442 829.5655255 16.34638046 831.8515625 16.46484375 C833.2760437 16.54358293 834.7005228 16.62236035 836.125 16.70117188 C838.35115223 16.81901276 840.57738492 16.93505095 842.80371094 17.04956055 C871.04609711 18.52304855 871.04609711 18.52304855 876 21 C877.51708875 21.18067409 879.03916284 21.32068698 880.5625 21.4375 C885.51246218 21.89713935 890.1756684 22.83392933 895 24 C896.51787109 24.34224609 896.51787109 24.34224609 898.06640625 24.69140625 C907.67525626 26.85821894 916.96123345 29.0356287 926 33 C927.81019442 33.56987602 929.62301172 34.13144714 931.4375 34.6875 C938.693558 37.0514233 945.32623769 40.48692877 952.07226562 44.00830078 C953.98703733 44.99333152 955.92102106 45.92960356 957.859375 46.8671875 C962.76247569 49.31276137 967.37045901 52.20220223 972 55.125 C972.87011719 55.66253906 973.74023438 56.20007813 974.63671875 56.75390625 C975.45785156 57.27082031 976.27898437 57.78773438 977.125 58.3203125 C978.24261719 59.02051514 978.24261719 59.02051514 979.3828125 59.73486328 C980.18332031 60.36110596 980.18332031 60.36110596 981 61 C981 61.66 981 62.32 981 63 C981.66 63.20625 982.32 63.4125 983 63.625 C987.07180186 65.49124252 990.68796998 67.97561527 994 71 C994 71.66 994 72.32 994 73 C994.54011719 73.22300781 995.08023437 73.44601562 995.63671875 73.67578125 C998.75914152 75.42537021 1001.22152629 77.75222992 1003.8125 80.1875 C1004.60382324 80.92407837 1004.60382324 80.92407837 1005.41113281 81.67553711 C1006.94683731 83.11072876 1008.47479772 84.55366083 1010 86 C1010.77214844 86.72960937 1011.54429688 87.45921875 1012.33984375 88.2109375 C1015.85976715 91.62288779 1015.85976715 91.62288779 1017 93 C1017 93.66 1017 94.32 1017 95 C1017.66 95 1018.32 95 1019 95 C1020.9453125 97.1171875 1020.9453125 97.1171875 1023.125 99.875 C1023.84945313 100.77992188 1024.57390625 101.68484375 1025.3203125 102.6171875 C1027 105 1027 105 1027 107 C1027.66 107 1028.32 107 1029 107 C1032 111.38461538 1032 111.38461538 1032 114 C1032.66 114 1033.32 114 1034 114 C1037 119.75 1037 119.75 1037 122 C1037.66 122 1038.32 122 1039 122 C1039 123.32 1039 124.64 1039 126 C1039.66 126 1040.32 126 1041 126 C1042.48845002 129.05807192 1043.96408052 132.12216144 1045.4375 135.1875 C1046.06881836 136.48397461 1046.06881836 136.48397461 1046.71289062 137.80664062 C1047.11572266 138.64775391 1047.51855469 139.48886719 1047.93359375 140.35546875 C1048.30540771 141.12528076 1048.67722168 141.89509277 1049.06030273 142.68823242 C1050.04652149 145.11444842 1050.56736479 147.42213215 1051 150 C1051.66 150 1052.32 150 1053 150 C1053.50833591 151.24663331 1054.00631145 152.49749387 1054.5 153.75 C1054.7784375 154.44609375 1055.056875 155.1421875 1055.34375 155.859375 C1056 158 1056 158 1056 162 C1056.66 162 1057.32 162 1058 162 C1058 163.65 1058 165.3 1058 167 C1058.66 167 1059.32 167 1060 167 C1060.60464367 168.95818611 1061.20868482 170.91655826 1061.8125 172.875 C1062.17859375 174.06222656 1062.5446875 175.24945312 1062.921875 176.47265625 C1064.04160272 180.13611325 1065.12768684 183.80820851 1066.19140625 187.48828125 C1066.87557632 189.61350519 1067.63211492 191.67159767 1068.43359375 193.75390625 C1070.03525092 197.98372153 1071.30738625 202.26432709 1072.5 206.625 C1072.82145996 207.79252808 1072.82145996 207.79252808 1073.14941406 208.98364258 C1075.37010586 217.17223425 1077.38309462 225.41527141 1078.515625 233.83203125 C1078.65793682 236.85530705 1078.65793682 236.85530705 1080 238 C1080.98613424 242.00768415 1081.71885656 246.07302733 1082.5 250.125 C1082.72848633 251.30521729 1082.95697266 252.48543457 1083.19238281 253.70141602 C1084.61213802 261.27985315 1085.61145174 268.6276596 1085.859375 276.33984375 C1085.88742432 279.10511646 1085.88742432 279.10511646 1087 282 C1087.27489848 284.0698344 1087.50838189 286.14527115 1087.71875 288.22265625 C1087.84588379 289.47602783 1087.97301758 290.72939941 1088.10400391 292.02075195 C1088.23626061 293.367976 1088.3682547 294.71522585 1088.5 296.0625 C1088.56725281 296.73662933 1088.63450562 297.41075867 1088.70379639 298.10531616 C1089.59655187 307.07041426 1090.36843369 316.02766354 1090.70898438 325.03344727 C1090.56719914 328.30106979 1090.56719914 328.30106979 1092 331 C1092.21282691 333.92045812 1092.37700872 336.82554077 1092.5 339.75 C1092.70844723 344.61376879 1092.98930102 349.22856065 1094 354 C1095.28278947 367.63557697 1095.11228828 381.3198329 1095 395 C1095.66 395 1096.32 395 1097 395 C1097.03758423 396.17187866 1097.03758423 396.17187866 1097.07592773 397.36743164 C1097.19250203 400.93259617 1097.31494865 404.49753613 1097.4375 408.0625 C1097.47681641 409.29162109 1097.51613281 410.52074219 1097.55664062 411.78710938 C1097.59853516 412.98271484 1097.64042969 414.17832031 1097.68359375 415.41015625 C1097.72025146 416.50465088 1097.75690918 417.59914551 1097.79467773 418.72680664 C1097.95510169 422.02493319 1097.95510169 422.02493319 1098.5 425.36328125 C1099.0714004 429.51932633 1099.22586004 433.58823802 1099.31640625 437.77734375 C1099.3475779 438.99436729 1099.3475779 438.99436729 1099.37937927 440.23597717 C1099.44425643 442.80307339 1099.50346922 445.37026337 1099.5625 447.9375 C1099.60574418 449.68816036 1099.64936026 451.43881158 1099.69335938 453.18945312 C1099.7998735 457.45954171 1099.90131114 461.72972368 1100 466 C1100.66 466 1101.32 466 1102 466 C1102 563.02 1102 660.04 1102 760 C1101.34 760 1100.68 760 1100 760 C1099.96241577 761.57297852 1099.96241577 761.57297852 1099.92407227 763.17773438 C1099.82931227 767.0990651 1099.72926412 771.02024672 1099.62768555 774.94140625 C1099.58459433 776.63277681 1099.54290324 778.32418368 1099.50268555 780.015625 C1099.44435171 782.45844427 1099.38084551 784.90108505 1099.31640625 787.34375 C1099.29969376 788.08991577 1099.28298126 788.83608154 1099.26576233 789.6048584 C1099.16745215 793.15444889 1098.95962716 796.63268725 1098.49780273 800.15478516 C1098.06165546 803.52375014 1097.8222547 806.78770628 1097.71875 810.1796875 C1097.66267578 811.819375 1097.66267578 811.819375 1097.60546875 813.4921875 C1097.53442623 815.77081069 1097.46412857 818.04945721 1097.39453125 820.328125 C1097.35714844 821.41351562 1097.31976562 822.49890625 1097.28125 823.6171875 C1097.23581055 825.09614502 1097.23581055 825.09614502 1097.18945312 826.60498047 C1097 829 1097 829 1096 831 C1095.78444985 833.92732824 1095.62241085 836.83801735 1095.5 839.76953125 C1095.45939453 840.64268478 1095.41878906 841.51583832 1095.37695312 842.41545105 C1095.24703377 845.21429178 1095.12292375 848.01334386 1095 850.8125 C1094.87685013 853.60093067 1094.75232732 856.38926042 1094.62304688 859.17741394 C1094.54257552 860.91350559 1094.46560802 862.6497641 1094.39257812 864.38618469 C1094.20829918 868.36886786 1093.85487416 872.09603193 1093 876 C1092.86173037 877.618626 1092.75688451 879.24041432 1092.68359375 880.86328125 C1092.64169922 881.74951172 1092.59980469 882.63574219 1092.55664062 883.54882812 C1092.49766602 884.9168457 1092.49766602 884.9168457 1092.4375 886.3125 C1092.37272461 887.70952148 1092.37272461 887.70952148 1092.30664062 889.13476562 C1092.20102775 891.42304454 1092.09892248 893.71142372 1092 896 C1091.34 896 1090.68 896 1090 896 C1090.03480469 896.928125 1090.06960938 897.85625 1090.10546875 898.8125 C1090.36484967 909.62989392 1089.57797682 920.30277326 1088.5625 931.0625 C1088.49501556 931.79170654 1088.42753113 932.52091309 1088.35800171 933.2722168 C1088.16277428 935.36051328 1087.96010397 937.44791708 1087.75390625 939.53515625 C1087.63345947 940.755979 1087.5130127 941.97680176 1087.38891602 943.23461914 C1087 946 1087 946 1086 947 C1085.81111935 948.93377809 1085.67524689 950.87279339 1085.5625 952.8125 C1085.10336289 959.31105605 1084.18621734 965.59904799 1083 972 C1082.75763339 973.34241559 1082.51545642 974.68486543 1082.2734375 976.02734375 C1080.16192658 987.6164762 1080.16192658 987.6164762 1078.875 992.5625 C1077.93217306 995.97323535 1077.93217306 995.97323535 1077.5625 999.4375 C1077.12591624 1002.20253051 1076.61105527 1004.28805218 1075.6875 1006.875 C1073.15361677 1014.06269848 1071.67888681 1021.57710451 1070 1029 C1069.34 1029 1068.68 1029 1068 1029 C1067.87625 1030.3303125 1067.87625 1030.3303125 1067.75 1031.6875 C1065.86688132 1044.71240417 1060.38813142 1058.08748607 1054.90234375 1069.984375 C1053.71541447 1072.63569754 1052.72327702 1075.34303871 1051.7265625 1078.0703125 C1050.58833652 1081.0933428 1049.29457196 1084.04097838 1048 1087 C1047.34 1087 1046.68 1087 1046 1087 C1045.87753906 1087.56203125 1045.75507812 1088.1240625 1045.62890625 1088.703125 C1044.9480131 1091.18986519 1044.00647675 1093.40514776 1042.9375 1095.75 C1042.57527344 1096.54921875 1042.21304687 1097.3484375 1041.83984375 1098.171875 C1041.42412109 1099.07679688 1041.42412109 1099.07679688 1041 1100 C1040.34 1100 1039.68 1100 1039 1100 C1038.896875 1100.556875 1038.79375 1101.11375 1038.6875 1101.6875 C1035.93196139 1110.95612989 1027.83417211 1119.48015714 1022 1127 C1021.46761719 1127.68964844 1020.93523437 1128.37929687 1020.38671875 1129.08984375 C1019.31148634 1130.43784899 1018.16515832 1131.7289182 1017 1133 C1016.34 1133 1015.68 1133 1015 1133 C1015 1133.66 1015 1134.32 1015 1135 C1014.34 1135 1013.68 1135 1013 1135 C1012.773125 1135.5775 1012.54625 1136.155 1012.3125 1136.75 C1010.65238361 1139.59591381 1008.60812043 1140.99841921 1006 1143 C1005.236875 1143.763125 1004.47375 1144.52625 1003.6875 1145.3125 C1001.44556452 1147.55443548 999.17348408 1149.69869476 996.8125 1151.8125 C995.80123047 1152.71935547 995.80123047 1152.71935547 994.76953125 1153.64453125 C993 1155 993 1155 991 1155 C991 1155.66 991 1156.32 991 1157 C988.9453125 1158.69921875 988.9453125 1158.69921875 986.125 1160.6875 C985.12726563 1161.39261719 984.12953125 1162.09773438 983.1015625 1162.82421875 C982.07804687 1163.54222656 981.05453125 1164.26023437 980 1165 C979.05898437 1165.68707031 978.11796875 1166.37414063 977.1484375 1167.08203125 C976.27445313 1167.71496094 975.40046875 1168.34789062 974.5 1169 C973.7059375 1169.5775 972.911875 1170.155 972.09375 1170.75 C970 1172 970 1172 967 1172 C967 1172.66 967 1173.32 967 1174 C958.46112255 1178.64395089 949.94593222 1183.17764714 941 1187 C940.35772461 1187.27730957 939.71544922 1187.55461914 939.05371094 1187.84033203 C931.28882884 1191.18012385 923.63660026 1194.41057603 915.39453125 1196.39453125 C912.90605199 1196.99215191 912.90605199 1196.99215191 910.15625 1197.94921875 C899.39972846 1201.53028842 888.69420829 1203.50067903 877.44921875 1204.60546875 C874.02529347 1204.87691934 874.02529347 1204.87691934 871 1206 C868.8571247 1206.20115648 866.71046116 1206.36346671 864.5625 1206.5 C860.8881932 1206.73408553 857.55721695 1207.10954483 854 1208 C839.66581647 1209.80527487 825.30224092 1210.51019778 810.875 1211.0625 C807.89130924 1211.17836915 804.90774138 1211.2960226 801.92434692 1211.41929626 C800.0904384 1211.49498723 798.25634832 1211.5664314 796.42208862 1211.6330719 C792.07302969 1211.69148478 792.07302969 1211.69148478 788 1213 C785.90511548 1213.14286232 783.8060657 1213.22643046 781.70703125 1213.28125 C779.80147461 1213.33732422 779.80147461 1213.33732422 777.85742188 1213.39453125 C776.50912707 1213.43016324 775.16081951 1213.4653155 773.8125 1213.5 C771.19391172 1213.56928161 768.57541388 1213.64208862 765.95703125 1213.71875 C764.20869995 1213.76418945 764.20869995 1213.76418945 762.42504883 1213.81054688 C759.00824578 1213.94642814 759.00824578 1213.94642814 755.68833923 1214.4942627 C752.28042674 1214.96154848 748.99721076 1215.1845986 745.56152344 1215.28125 C744.33044861 1215.31798828 743.09937378 1215.35472656 741.83099365 1215.39257812 C740.5203595 1215.42802734 739.20972534 1215.46347656 737.859375 1215.5 C736.48649719 1215.54054305 735.1136335 1215.58156657 733.74078369 1215.62304688 C728.67362181 1215.77518072 723.60623866 1215.91926719 718.53881836 1216.0625 C714.24153133 1216.18415271 709.94438006 1216.30938762 705.6473465 1216.43969727 C703.63607449 1216.49920997 701.6246459 1216.55335212 699.61322021 1216.60742188 C698.39475403 1216.64416016 697.17628784 1216.68089844 695.92089844 1216.71875 C694.84725037 1216.74904297 693.77360229 1216.77933594 692.66741943 1216.81054688 C689.89709655 1216.89639984 689.89709655 1216.89639984 687 1218 C685.65705094 1218.10775807 684.30970176 1218.16566069 682.96264648 1218.18945312 C682.15427841 1218.20617065 681.34591034 1218.22288818 680.51304626 1218.2401123 C679.64120193 1218.25368774 678.7693576 1218.26726318 677.87109375 1218.28125 C676.96682144 1218.29965942 676.06254913 1218.31806885 675.13087463 1218.33703613 C672.23314935 1218.3957836 669.33536297 1218.44852306 666.4375 1218.5 C663.56463839 1218.55169363 660.69184673 1218.60486736 657.81910706 1218.66296387 C656.03267049 1218.69906526 654.24615699 1218.7316094 652.45957947 1218.7598877 C648.48129248 1218.83997497 644.56977138 1219.01704017 640.61621094 1219.47265625 C632.14087445 1220.38063452 623.59626106 1220.45831872 615.08203125 1220.71875 C613.09078495 1220.78175824 611.0995436 1220.84492315 609.10830688 1220.90823364 C603.77832628 1221.07630125 598.44819237 1221.23890414 593.1179924 1221.39984894 C589.81284688 1221.49998949 586.50775352 1221.60172105 583.20266724 1221.70379639 C551.66169205 1222.67420933 520.12642122 1223.40577423 488.5715065 1223.68895149 C486.43139517 1223.70837719 484.29130605 1223.72945345 482.1512146 1223.75094604 C479.57941745 1223.77565299 477.00757194 1223.79589009 474.43569946 1223.81082153 C473.32697479 1223.82120453 472.21825012 1223.83158752 471.07592773 1223.84228516 C470.11242905 1223.84878082 469.14893036 1223.85527649 468.15623474 1223.86196899 C466.01941404 1223.76042278 466.01941404 1223.76042278 465 1225 C446.57519326 1226.84211451 427.81000512 1226.14369134 409.31352472 1226.13072467 C404.4848889 1226.12844067 399.65625656 1226.13196475 394.82762146 1226.13470459 C385.39948345 1226.13912762 375.97135345 1226.13820186 366.54321514 1226.13529195 C358.88495592 1226.13302664 351.22669894 1226.13273026 343.56843948 1226.13381577 C341.92896881 1226.13404561 341.92896881 1226.13404561 340.25637753 1226.13428011 C338.03572467 1226.13459985 335.81507181 1226.13492406 333.59441896 1226.1352527 C312.82796242 1226.13809669 292.06151032 1226.1348362 271.29505451 1226.12945233 C253.46818518 1226.12497395 235.64132235 1226.12577081 217.81445312 1226.13037109 C197.09056352 1226.13571649 176.36667777 1226.13783399 155.64278758 1226.13475883 C153.43615063 1226.13444028 151.22951369 1226.13412591 149.02287674 1226.13381577 C147.93723436 1226.13366149 146.85159198 1226.13350721 145.73305135 1226.13334826 C138.07288143 1226.13248385 130.41271395 1226.13394414 122.7525444 1226.13629532 C113.43491689 1226.1390926 104.11729781 1226.13835609 94.79967128 1226.13301457 C90.04395401 1226.13037835 85.28825082 1226.12937135 80.53253365 1226.13266373 C76.18595692 1226.13562757 71.83940744 1226.13403244 67.49283321 1226.12868617 C65.91467128 1226.12756252 64.33650709 1226.12815205 62.7583466 1226.13056196 C60.62522789 1226.13357139 58.49220441 1226.13051582 56.35909081 1226.12584114 C54.57661778 1226.12559761 54.57661778 1226.12559761 52.7581352 1226.12534916 C50 1226 50 1226 48 1225 C46.58630274 1224.92822961 45.16926201 1224.9160755 43.75390625 1224.9375 C42.91666016 1224.94523437 42.07941406 1224.95296875 41.21679688 1224.9609375 C39.45117103 1224.98692169 37.68554602 1225.0129631 35.91992188 1225.0390625 C35.08138672 1225.04679687 34.24285156 1225.05453125 33.37890625 1225.0625 C32.6113501 1225.07410156 31.84379395 1225.08570313 31.05297852 1225.09765625 C29 1225 29 1225 26 1224 C24.00235944 1223.89719673 22.00146954 1223.85415651 20.0012207 1223.84228516 C18.73709854 1223.83190216 17.47297638 1223.82151917 16.17054749 1223.81082153 C15.14118922 1223.80564199 15.14118922 1223.80564199 14.09103584 1223.80035782 C11.86368237 1223.78873855 9.63646008 1223.77068731 7.40916443 1223.75094604 C4.12162326 1223.7219448 0.83407511 1223.69469336 -2.45349121 1223.66870117 C-38.80660752 1223.37275098 -75.14189097 1222.58469103 -111.48245621 1221.60161591 C-115.24335179 1221.50017931 -119.00428455 1221.40023254 -122.76522827 1221.30059814 C-128.74698132 1221.14163988 -134.72860964 1220.97860854 -140.71015739 1220.81210709 C-142.92344578 1220.75075669 -145.13675949 1220.6903121 -147.35009956 1220.63085556 C-157.32150533 1220.36124412 -167.25487146 1220.07307205 -177.1963501 1219.21520996 C-181.9650834 1218.84915894 -186.73486921 1218.78650795 -191.515625 1218.71875 C-193.61067778 1218.68102807 -195.70572984 1218.64326659 -197.80078125 1218.60546875 C-201.05320154 1218.55146817 -204.30564254 1218.49912122 -207.55810547 1218.44775391 C-210.73152976 1218.39628787 -213.90481049 1218.33903514 -217.078125 1218.28125 C-218.06024963 1218.26767456 -219.04237427 1218.25409912 -220.05426025 1218.2401123 C-220.95320007 1218.22339478 -221.85213989 1218.20667725 -222.77832031 1218.18945312 C-223.57183899 1218.17692505 -224.36535767 1218.16439697 -225.18292236 1218.15148926 C-227 1218 -227 1218 -228 1217 C-230.01708291 1216.8518118 -232.03921851 1216.77204756 -234.06103516 1216.71875 C-235.35973541 1216.68201172 -236.65843567 1216.64527344 -237.99649048 1216.60742188 C-238.69550098 1216.58993896 -239.39451149 1216.57245605 -240.11470413 1216.55444336 C-242.30117153 1216.4996968 -244.48740674 1216.43909788 -246.67367554 1216.37695312 C-251.32397726 1216.24590036 -255.97447103 1216.1226787 -260.625 1216 C-265.99371932 1215.85767181 -271.36232553 1215.71211898 -276.73078537 1215.56030273 C-278.87705922 1215.50102204 -281.02342029 1215.44666806 -283.16983032 1215.39257812 C-284.48744354 1215.35583984 -285.80505676 1215.31910156 -287.16259766 1215.28125 C-288.89348129 1215.23581055 -288.89348129 1215.23581055 -290.65933228 1215.18945312 C-294.15165049 1214.99139973 -297.5427353 1214.52172972 -301 1214 C-303.17149252 1213.87308291 -305.34518531 1213.77963881 -307.51953125 1213.71875 C-309.2994043 1213.66267578 -309.2994043 1213.66267578 -311.11523438 1213.60546875 C-313.59959356 1213.53459955 -316.08396893 1213.46429572 -318.56835938 1213.39453125 C-320.33856445 1213.33845703 -320.33856445 1213.33845703 -322.14453125 1213.28125 C-323.75871948 1213.23581055 -323.75871948 1213.23581055 -325.40551758 1213.18945312 C-328 1213 -328 1213 -330 1212 C-332.5254623 1211.78582652 -335.03234693 1211.62335372 -337.5625 1211.5 C-338.30959229 1211.45939453 -339.05668457 1211.41878906 -339.82641602 1211.37695312 C-342.21740863 1211.24710287 -344.60863963 1211.12288002 -347 1211 C-350.14612512 1210.83833641 -353.29186841 1210.6709693 -356.4375 1210.5 C-357.52816772 1210.44682617 -357.52816772 1210.44682617 -358.64086914 1210.39257812 C-363.77439638 1210.11280181 -363.77439638 1210.11280181 -366 1209 C-367.99651809 1208.79581065 -369.99759821 1208.63477704 -372 1208.5 C-377.77777778 1208.11111111 -377.77777778 1208.11111111 -380 1207 C-381.97559868 1206.79533366 -383.95588811 1206.63450941 -385.9375 1206.5 C-389.23044938 1206.2759354 -391.86163082 1206.04612306 -395 1205 C-396.61322573 1204.79856535 -398.23153692 1204.63634632 -399.8515625 1204.5 C-400.78484375 1204.4175 -401.718125 1204.335 -402.6796875 1204.25 C-404.65098589 1204.08267494 -406.62234071 1203.91601341 -408.59375 1203.75 C-409.52445313 1203.6675 -410.45515625 1203.585 -411.4140625 1203.5 C-412.2695166 1203.4278125 -413.1249707 1203.355625 -414.00634766 1203.28125 C-416 1203 -416 1203 -417 1202 C-418.32821618 1201.8132196 -419.66354224 1201.67619172 -421 1201.5625 C-424.89279089 1201.16527644 -428.60110955 1200.49925409 -432.40625 1199.6015625 C-436.80914421 1198.58040933 -441.24176657 1197.69530298 -445.66796875 1196.78125 C-448.86646345 1196.03130986 -451.89363303 1195.06193433 -455 1194 C-456.74682251 1193.52970163 -458.49685671 1193.07115922 -460.25 1192.625 C-464.72762453 1191.41531918 -468.9552678 1189.93930908 -473.23046875 1188.1484375 C-475.26073655 1187.3065493 -477.30778677 1186.50483335 -479.36328125 1185.7265625 C-495.06689169 1179.72370402 -509.25294302 1171.57447314 -523.18505859 1162.20849609 C-524.38581583 1161.40896041 -525.59713676 1160.62504621 -526.81884766 1159.85791016 C-528.2451268 1158.95475299 -529.62800042 1157.98365756 -531 1157 C-531 1156.34 -531 1155.68 -531 1155 C-531.55171875 1154.7525 -532.1034375 1154.505 -532.671875 1154.25 C-535.45136707 1152.75765526 -537.7814707 1150.96327477 -540.25 1149 C-541.14203125 1148.29875 -542.0340625 1147.5975 -542.953125 1146.875 C-543.62859375 1146.25625 -544.3040625 1145.6375 -545 1145 C-545 1144.34 -545 1143.68 -545 1143 C-545.66 1143 -546.32 1143 -547 1143 C-547 1142.34 -547 1141.68 -547 1141 C-547.804375 1140.690625 -547.804375 1140.690625 -548.625 1140.375 C-551.91978009 1138.46749574 -554.59363628 1135.95180616 -557 1133 C-557 1132.34 -557 1131.68 -557 1131 C-557.66 1131 -558.32 1131 -559 1131 C-560.9453125 1128.8828125 -560.9453125 1128.8828125 -563.125 1126.125 C-563.84945312 1125.22007813 -564.57390625 1124.31515625 -565.3203125 1123.3828125 C-567 1121 -567 1121 -567 1119 C-567.66 1119 -568.32 1119 -569 1119 C-570.2890625 1117.3203125 -570.2890625 1117.3203125 -571.625 1115.125 C-572.29402344 1114.04605469 -572.29402344 1114.04605469 -572.9765625 1112.9453125 C-574 1111 -574 1111 -574 1109 C-574.66 1109 -575.32 1109 -576 1109 C-576.84114171 1107.56705502 -577.67265687 1106.12845595 -578.5 1104.6875 C-579.19609375 1103.48673828 -579.19609375 1103.48673828 -579.90625 1102.26171875 C-581 1100 -581 1100 -581 1097 C-581.66 1097 -582.32 1097 -583 1097 C-583.84324672 1095.421924 -584.67423918 1093.8372958 -585.5 1092.25 C-585.9640625 1091.36828125 -586.428125 1090.4865625 -586.90625 1089.578125 C-588 1087 -588 1087 -588 1083 C-588.66 1083 -589.32 1083 -590 1083 C-590.25168945 1082.35562988 -590.50337891 1081.71125977 -590.76269531 1081.04736328 C-591.92471603 1078.07308019 -593.08735483 1075.09903905 -594.25 1072.125 C-594.64574219 1071.11179687 -595.04148437 1070.09859375 -595.44921875 1069.0546875 C-597.34103281 1064.21660564 -599.24548148 1059.3853293 -601.1953125 1054.5703125 C-602.49479121 1051.33004548 -603.67551797 1048.11322551 -604.625 1044.75 C-605.91118787 1040.24077664 -607.35789479 1035.80490917 -608.9296875 1031.38671875 C-612.53545261 1021.09091837 -614.79706332 1010.51439809 -617.125 999.875 C-617.93776866 996.02400093 -617.93776866 996.02400093 -619.125 992.4375 C-620.14659941 988.42407373 -620.14476907 985.1259184 -620 981 C-620.66 981 -621.32 981 -622 981 C-622.09087891 980.06027344 -622.09087891 980.06027344 -622.18359375 979.1015625 C-622.30927734 977.87566406 -622.30927734 977.87566406 -622.4375 976.625 C-622.51871094 975.81289062 -622.59992188 975.00078125 -622.68359375 974.1640625 C-622.89090114 971.95727195 -622.89090114 971.95727195 -624 970 C-624.27711174 968.43979559 -624.50980367 966.87156772 -624.71875 965.30078125 C-624.84588379 964.3454248 -624.97301758 963.39006836 -625.10400391 962.40576172 C-625.23468262 961.38498535 -625.36536133 960.36420898 -625.5 959.3125 C-625.6345459 958.27625488 -625.7690918 957.24000977 -625.90771484 956.17236328 C-626.80005912 949.10275751 -627.44696461 942.07983161 -627.7890625 934.9609375 C-627.93250269 932.06851827 -627.93250269 932.06851827 -628.4921875 929.54296875 C-629.36548254 925.16977589 -629.45311186 920.722039 -629.71875 916.27734375 C-629.87737832 913.22916274 -629.87737832 913.22916274 -630.48632812 911.26855469 C-631.22287875 908.01568946 -631.33138546 904.74607467 -631.5 901.42578125 C-631.58331024 899.93945183 -631.66664427 898.45312374 -631.75 896.96679688 C-631.87632463 894.62954448 -632.00107549 892.29221483 -632.125 889.95483398 C-632.24614716 887.69491898 -632.37284432 885.43536487 -632.5 883.17578125 C-632.53544922 882.47165604 -632.57089844 881.76753082 -632.60742188 881.04206848 C-632.5292073 877.73434963 -632.5292073 877.73434963 -634 875 C-634.14466903 873.57195261 -634.22699363 872.13745576 -634.28125 870.703125 C-634.33732422 869.38828125 -634.33732422 869.38828125 -634.39453125 868.046875 C-634.42933594 867.12390625 -634.46414063 866.2009375 -634.5 865.25 C-634.56931917 863.44256678 -634.64213155 861.63526352 -634.71875 859.828125 C-634.74904297 859.0227832 -634.77933594 858.21744141 -634.81054688 857.38769531 C-634.94957803 854.99138757 -634.94957803 854.99138757 -635.4942627 852.6481781 C-635.97390381 850.13664674 -636.18463168 847.79318408 -636.28125 845.24145508 C-636.31798828 844.32733353 -636.35472656 843.41321198 -636.39257812 842.47138977 C-636.42802734 841.49727646 -636.46347656 840.52316315 -636.5 839.51953125 C-636.58332586 837.44856741 -636.66665942 835.37760388 -636.75 833.30664062 C-636.87622752 830.0476532 -637.0009096 826.78861048 -637.125 823.52954102 C-637.24626472 820.38021104 -637.37293361 817.23113162 -637.5 814.08203125 C-637.53544922 813.10184525 -637.57089844 812.12165924 -637.60742188 811.11177063 C-637.64416016 810.20710556 -637.68089844 809.30244049 -637.71875 808.37036133 C-637.74904297 807.57269852 -637.77933594 806.77503571 -637.81054688 805.95320129 C-637.88971323 803.92159539 -637.88971323 803.92159539 -639 802 C-639.11704964 800.64247704 -639.17677189 799.27974112 -639.20532227 797.91748047 C-639.22526749 797.07675995 -639.24521271 796.23603943 -639.26576233 795.36984253 C-639.28247482 794.46146637 -639.29918732 793.55309021 -639.31640625 792.6171875 C-639.3475779 791.22308151 -639.3475779 791.22308151 -639.37937927 789.80081177 C-639.44487646 786.8256179 -639.50376052 783.85033423 -639.5625 780.875 C-639.60568506 778.86066772 -639.64929934 776.84634459 -639.69335938 774.83203125 C-639.80055803 769.88811337 -639.90182501 764.94410497 -640 760 C-640.66 760 -641.32 760 -642 760 C-642 662.98 -642 565.96 -642 466 C-641.34 466 -640.68 466 -640 466 C-639.67 451.48 -639.34 436.96 -639 422 C-638.34 422 -637.68 422 -637 422 C-637.00785522 420.92238403 -637.00785522 420.92238403 -637.01586914 419.82299805 C-637.16878264 395.55233488 -637.16878264 395.55233488 -636.5625 384.125 C-636.52326416 383.36662842 -636.48402832 382.60825684 -636.44360352 381.8269043 C-636.27675021 379.03075037 -636.06497649 376.31458474 -635.49780273 373.56860352 C-635.01472673 371.0759882 -634.81483744 368.74133736 -634.71875 366.20703125 C-634.68136719 365.32982422 -634.64398437 364.45261719 -634.60546875 363.54882812 C-634.53470523 361.71290795 -634.46439844 359.87697013 -634.39453125 358.04101562 C-634.35714844 357.16767578 -634.31976562 356.29433594 -634.28125 355.39453125 C-634.23581055 354.20114136 -634.23581055 354.20114136 -634.18945312 352.98364258 C-634 351 -634 351 -633 349 C-632.78704041 346.66391465 -632.63022467 344.32262333 -632.5 341.98046875 C-632.45939453 341.28488358 -632.41878906 340.5892984 -632.37695312 339.87263489 C-632.24715206 337.64447161 -632.12302061 335.41604725 -632 333.1875 C-631.87669446 330.96968602 -631.75204736 328.75199052 -631.62304688 326.53450012 C-631.50560211 324.51433078 -631.39329719 322.49386458 -631.28125 320.47338867 C-631.04479004 317.5531492 -630.61732472 314.85543672 -630 312 C-629.7053888 308.42783916 -629.49507907 304.85516232 -629.28125 301.27734375 C-629 298 -629 298 -628.51147461 296.10107422 C-627.94029408 293.75473548 -627.72221158 291.51291898 -627.53515625 289.10546875 C-627.4585376 288.15712158 -627.38191895 287.20877441 -627.30297852 286.23168945 C-627.18394165 284.72481567 -627.18394165 284.72481567 -627.0625 283.1875 C-626.03638226 270.93433445 -624.92868437 258.94791901 -621.71875 247.0390625 C-620.91522447 243.64154694 -620.44481354 240.27463206 -620 236.8125 C-619.38063904 232.1469859 -618.48900802 228.06711241 -616.8515625 223.67578125 C-615.39162822 219.08837309 -614.49281433 214.35977272 -613.53369141 209.64550781 C-612.6027498 205.21364697 -611.37707827 201.10839625 -609.71826172 196.89575195 C-608.63113977 194.02644471 -607.85919479 191.08610595 -607.0625 188.125 C-605.64766521 183.07355564 -604.02565335 178.26044607 -602 173.42578125 C-600.92101147 170.80839109 -599.95427881 168.16527088 -599 165.5 C-593.70220997 150.89032518 -586.88212543 137.30026707 -579.4453125 123.671875 C-578.25227787 121.46637314 -577.10404099 119.25095736 -576 117 C-575.34 117 -574.68 117 -574 117 C-573.9175 116.45472656 -573.835 115.90945313 -573.75 115.34765625 C-572.73970082 112.18520935 -571.01903428 110.06995616 -569 107.4375 C-568.60353271 106.92026367 -568.20706543 106.40302734 -567.79858398 105.87011719 C-566.54144078 104.23946954 -565.27244501 102.61872803 -564 101 C-563.36989014 100.19296631 -563.36989014 100.19296631 -562.72705078 99.36962891 C-557.41544121 92.59417365 -557.41544121 92.59417365 -555 90 C-554.34 90 -553.68 90 -553 90 C-553 89.34 -553 88.68 -553 88 C-551.625 86.375 -551.625 86.375 -550 85 C-549.34 85 -548.68 85 -548 85 C-548 84.34 -548 83.68 -548 83 C-542.52380952 78 -542.52380952 78 -540 78 C-540 77.34 -540 76.68 -540 76 C-537.8828125 74.0546875 -537.8828125 74.0546875 -535.125 71.875 C-533.76761719 70.78832031 -533.76761719 70.78832031 -532.3828125 69.6796875 C-530 68 -530 68 -528 68 C-528 67.34 -528 66.68 -528 66 C-525.76360773 64.19788734 -523.53217136 62.52435503 -521.1875 60.875 C-520.22360352 60.17310547 -520.22360352 60.17310547 -519.24023438 59.45703125 C-514.37720937 56 -514.37720937 56 -511 56 C-511 55.34 -511 54.68 -511 54 C-508.50859391 52.6278433 -506.01274028 51.26474282 -503.51171875 49.91015625 C-501.02548756 48.55780135 -498.55155035 47.19058506 -496.08203125 45.80859375 C-486.92426562 40.7496798 -477.81789113 36.90354426 -467.88012695 33.66113281 C-465.96992236 32.98942342 -464.13641761 32.21769805 -462.28515625 31.3984375 C-459.62016389 30.26399367 -457.38377979 29.51199028 -454.5625 29 C-451.55357962 28.3941771 -449.2016176 27.67523428 -446.3125 26.5 C-441.3832434 24.52029857 -436.21745937 24.0693687 -430.9765625 23.4296875 C-428.07946468 23.17091289 -428.07946468 23.17091289 -426 22 C-423.44122107 21.68879716 -420.88148388 21.49035334 -418.3125 21.28125 C-415.97731545 21.12863953 -415.97731545 21.12863953 -414 20 C-402.93479237 18.21418724 -391.804867 17.51252902 -380.625 16.9375 C-378.39902035 16.82152337 -376.17319706 16.70383846 -373.94760132 16.58070374 C-371.96612073 16.47117603 -369.98428761 16.36808087 -368.00244141 16.26538086 C-365.07809179 16.19184877 -365.07809179 16.19184877 -363 15 C-361.18539696 14.85833683 -359.36616262 14.7739333 -357.546875 14.71875 C-356.45246094 14.68136719 -355.35804688 14.64398438 -354.23046875 14.60546875 C-352.50763672 14.55326172 -352.50763672 14.55326172 -350.75 14.5 C-348.4946769 14.43072386 -346.23945893 14.35791757 -343.984375 14.28125 C-342.98116211 14.25095703 -341.97794922 14.22066406 -340.94433594 14.18945312 C-338.0058549 14.05367458 -338.0058549 14.05367458 -335.16539001 13.5057373 C-332.20987035 13.03353118 -329.39782147 12.81537115 -326.40942383 12.71875 C-325.33843948 12.68201172 -324.26745514 12.64527344 -323.16401672 12.60742188 C-322.02321152 12.57197266 -320.88240631 12.53652344 -319.70703125 12.5 C-317.2792968 12.41666879 -314.85156243 12.33333539 -312.42382812 12.25 C-308.60526213 12.12382344 -304.78664966 11.9991595 -300.96801758 11.875 C-297.2767227 11.75363976 -293.58563555 11.62700411 -289.89453125 11.5 C-288.1742144 11.44682617 -288.1742144 11.44682617 -286.41914368 11.39257812 C-284.82685188 11.3374707 -284.82685188 11.3374707 -283.20239258 11.28125 C-281.80057487 11.23581055 -281.80057487 11.23581055 -280.37043762 11.18945312 C-277.85062326 11.08334205 -277.85062326 11.08334205 -275 10 C-272.37883953 9.85835512 -269.7792123 9.76682409 -267.15625 9.71875 C-266.39074829 9.70034058 -265.62524658 9.68193115 -264.83654785 9.66296387 C-261.56288453 9.58437993 -258.28901715 9.51658967 -255.01513672 9.44775391 C-252.62457341 9.39596074 -250.23418205 9.3387371 -247.84375 9.28125 C-246.73271912 9.26088684 -246.73271912 9.26088684 -245.59924316 9.2401123 C-242.48464754 9.16474014 -239.97606354 8.99202118 -237 8 C-234.54079504 7.86868233 -232.10533915 7.78996468 -229.64453125 7.75390625 C-228.082762 7.72208701 -226.52099451 7.69018154 -224.95922852 7.65820312 C-224.12481232 7.64281494 -223.29039612 7.62742676 -222.43069458 7.61157227 C-206.29491023 7.30914268 -190.18371416 6.7364349 -174.0625 6 C-152.71449748 5.02730977 -131.37160834 4.60663473 -110.00415039 4.34179688 C-108.22330299 4.31739281 -108.22330299 4.31739281 -106.40647888 4.29249573 C-104.16822174 4.26221523 -101.92990336 4.23609325 -99.69154358 4.21470642 C-98.70359299 4.20113602 -97.7156424 4.18756561 -96.69775391 4.17358398 C-95.83437408 4.16407211 -94.97099426 4.15456024 -94.08145142 4.14476013 C-91.939254 4.12966054 -91.939254 4.12966054 -90 3 C-87.89052959 2.87922221 -85.77729224 2.822538 -83.66455078 2.79467773 C-82.68817657 2.77982834 -82.68817657 2.77982834 -81.69207764 2.76467896 C-79.5265266 2.73295935 -77.36095495 2.7082192 -75.1953125 2.68359375 C-73.676661 2.66298708 -72.15801475 2.64198974 -70.63937378 2.62062073 C-67.4397889 2.57657912 -64.24018501 2.53570054 -61.04052734 2.49731445 C-56.99952668 2.44881603 -52.95861923 2.39512407 -48.91771317 2.33934593 C-32.61182622 2.11477901 -16.30779964 1.91921754 0 2 C0 1.34 0 0.68 0 0 Z M52 353 C52 512.39 52 671.78 52 836 C61.60106088 831.4818537 70.24745476 827.36704691 79.234375 822.08984375 C85.93602906 818.27107538 93.02211777 815.14838414 100.02392578 811.92626953 C102.03372477 810.98419177 104.01888224 810.00080509 106 809 C106 808.34 106 807.68 106 807 C106.5662207 806.87761963 107.13244141 806.75523926 107.71582031 806.62915039 C110.15689196 805.95678596 112.26475203 805.02839598 114.546875 803.93359375 C115.39121094 803.53076172 116.23554687 803.12792969 117.10546875 802.71289062 C117.97816406 802.29201172 118.85085938 801.87113281 119.75 801.4375 C120.63816406 801.01275391 121.52632812 800.58800781 122.44140625 800.15039062 C124.62920326 799.10354152 126.81530851 798.05331073 129 797 C129 796.34 129 795.68 129 795 C129.67933594 794.91105469 130.35867188 794.82210938 131.05859375 794.73046875 C134.7291075 793.81893346 137.78694022 792.14043569 141.0625 790.3125 C142.40946375 789.5768556 143.75712813 788.8424927 145.10546875 788.109375 C146.10006104 787.56700195 146.10006104 787.56700195 147.11474609 787.01367188 C149.67325465 785.63800139 152.26904049 784.34565572 154.875 783.0625 C160.63398409 780.21817136 166.29884969 777.2089404 171.95068359 774.15844727 C176.2238299 771.87059445 180.51735797 769.84579378 185 768 C185 767.34 185 766.68 185 766 C186.175625 765.938125 186.175625 765.938125 187.375 765.875 C191.72013236 764.82617495 194.76404883 762.86351087 198.51953125 760.5 C201.58883836 758.64391507 204.66507708 757.30496984 208 756 C208 755.34 208 754.68 208 754 C208.845625 753.9175 209.69125 753.835 210.5625 753.75 C213.87615227 753.02702132 216.1196342 751.85913363 219.01245117 750.15478516 C222.56899235 748.08840022 226.23020993 746.21741504 229.875 744.3125 C231.55871199 743.42991302 233.24230319 742.5470956 234.92578125 741.6640625 C235.77092285 741.22094727 236.61606445 740.77783203 237.48681641 740.32128906 C240.62758132 738.67005342 243.76116762 737.00552675 246.89428711 735.33984375 C253.55269206 731.80109008 260.2329704 728.32768122 267 725 C274.41464203 721.34548983 281.74991115 717.57493561 289.01245117 713.62768555 C291.65576483 712.20035947 294.1429396 710.95235347 297 710 C297 709.34 297 708.68 297 708 C297.67546875 707.91363281 298.3509375 707.82726563 299.046875 707.73828125 C302.78975255 706.80256186 305.91131263 705.05746871 309.25 703.1875 C314.73845763 700.18049374 320.2261866 697.43107933 326 695 C326 694.34 326 693.68 326 693 C326.57129639 692.87471924 327.14259277 692.74943848 327.73120117 692.62036133 C330.07706364 691.97892836 332.10457252 691.11552253 334.30078125 690.07421875 C335.11353516 689.68943359 335.92628906 689.30464844 336.76367188 688.90820312 C337.60478516 688.50537109 338.44589844 688.10253906 339.3125 687.6875 C340.14201172 687.29626953 340.97152344 686.90503906 341.82617188 686.50195312 C346.01827241 684.50681767 350.09692064 682.42491896 354.10717773 680.07885742 C358.29190989 677.69367344 362.5990224 675.5283338 366.875 673.3125 C374.7418557 669.22386714 382.59710113 665.11588661 390.41943359 660.94262695 C393.59584797 659.25261687 396.78481951 657.59963152 400.0078125 656 C403.86468381 654.08349571 407.65156265 652.05210655 411.4375 650 C416.86518352 647.0777661 422.31400416 644.39410351 428 642 C428 641.34 428 640.68 428 640 C428.9075 639.87625 429.815 639.7525 430.75 639.625 C433.58970323 639.07890323 435.52590591 638.42736197 438 637 C438 636.34 438 635.68 438 635 C438.56203125 634.87753906 439.1240625 634.75507812 439.703125 634.62890625 C442.18986519 633.9480131 444.40514776 633.00647675 446.75 631.9375 C447.54921875 631.57527344 448.3484375 631.21304687 449.171875 630.83984375 C450.07679688 630.42412109 450.07679688 630.42412109 451 630 C451 629.34 451 628.68 451 628 C451.928125 627.896875 452.85625 627.79375 453.8125 627.6875 C457.14965236 626.96772204 457.83186532 626.42857128 460 624 C458.88625 623.484375 457.7725 622.96875 456.625 622.4375 C452.41884008 620.33074974 448.69995426 617.78033799 444.8828125 615.04296875 C441.56704684 612.69317818 438.19820311 610.43476752 434.8125 608.1875 C434.17497803 607.76388184 433.53745605 607.34026367 432.88061523 606.90380859 C431.57248472 606.03498905 430.26413339 605.16650188 428.95556641 604.29833984 C425.80053715 602.20365251 422.65046294 600.10154604 419.5 598 C418.2461188 597.16402493 416.99221253 596.32808745 415.73828125 595.4921875 C384.3671875 574.578125 352.99609375 553.6640625 321.625 532.75 C320.19414063 531.79867187 320.19414063 531.79867187 318.734375 530.828125 C316.92583044 529.61898378 315.1235915 528.40035208 313.328125 527.171875 C312.51859375 526.62015625 311.7090625 526.0684375 310.875 525.5 C310.17117188 525.0153125 309.46734375 524.530625 308.7421875 524.03125 C307.05057313 522.83020693 307.05057313 522.83020693 305 523 C305 522.34 305 521.68 305 521 C302.89980986 519.52690889 300.82232271 518.18690365 298.625 516.875 C298.02171875 516.50246094 297.4184375 516.12992188 296.796875 515.74609375 C293.62654223 513.6727176 293.62654223 513.6727176 290 513 C290 512.34 290 511.68 290 511 C288.63875 510.2575 288.63875 510.2575 287.25 509.5 C279.86134906 505.27578138 272.88189156 500.34722907 265.9375 495.4375 C261.71887145 492.46437131 257.40097808 489.68839758 253.03515625 486.9375 C247.61349653 483.47656921 242.28306353 479.8781309 236.93945312 476.29833984 C233.18226139 473.78314024 229.41937385 471.2764509 225.65454102 468.77270508 C222.35763147 466.57867322 219.06988236 464.37224591 215.79296875 462.1484375 C215.10589844 461.684375 214.41882813 461.2203125 213.7109375 460.7421875 C212.38678724 459.84749138 211.06506467 458.94918911 209.74609375 458.046875 C206.64873974 455.75249203 206.64873974 455.75249203 203 455 C203 454.34 203 453.68 203 453 C201.36966163 451.73944962 201.36966163 451.73944962 199.23828125 450.5390625 C198.44873047 450.06726563 197.65917969 449.59546875 196.84570312 449.109375 C196.00974609 448.61953125 195.17378906 448.1296875 194.3125 447.625 C189.28108415 444.65459822 184.50971978 441.7364062 180 438 C177.97374458 436.60238892 175.92980067 435.23029406 173.875 433.875 C172.53761765 432.98979899 171.20039129 432.10436229 169.86328125 431.21875 C169.1048291 430.71730469 168.34637695 430.21585938 167.56494141 429.69921875 C162.96898577 426.65449657 158.38453901 423.59248465 153.7984314 420.53295898 C150.8764559 418.58384522 147.95381703 416.63572665 145.03125 414.6875 C143.85155937 413.90104636 142.67187187 413.11458803 141.4921875 412.328125 C140.91259277 411.94172852 140.33299805 411.55533203 139.73583984 411.15722656 C119.47265625 397.6484375 119.47265625 397.6484375 116.73828125 395.82519531 C114.90795231 394.60519361 113.07722085 393.38579558 111.24609375 392.16699219 C106.10898556 388.74633602 100.97887081 385.31582448 95.85798645 381.87094116 C92.94222555 379.91037958 90.02399328 377.95351485 87.10546875 375.99707031 C85.59951797 374.98628986 84.09466012 373.97387944 82.59082031 372.95996094 C80.39412175 371.47943335 78.19358826 370.00477361 75.9921875 368.53125 C75.31832001 368.07512329 74.64445251 367.61899658 73.95016479 367.14904785 C70.75337055 364.79307408 70.75337055 364.79307408 67 364 C67 363.34 67 362.68 67 362 C66.34 362 65.68 362 65 362 C65 361.34 65 360.68 65 360 C64.01 360 63.02 360 62 360 C62 359.34 62 358.68 62 358 C58.7 356.35 55.4 354.7 52 353 Z " fill="#FEFEFE" transform="translate(771,386)"/>
<path d="M0 0 C5.10376044 0.49792785 8.72135952 2.34234226 13 5 C22.67312805 10.69636658 22.67312805 10.69636658 33 15 C33 15.66 33 16.32 33 17 C33.56203125 17.12246094 34.1240625 17.24492188 34.703125 17.37109375 C37.18986519 18.0519869 39.40514776 18.99352325 41.75 20.0625 C42.54921875 20.42472656 43.3484375 20.78695312 44.171875 21.16015625 C44.77515625 21.43730469 45.3784375 21.71445312 46 22 C46 22.66 46 23.32 46 24 C46.78375 24.226875 47.5675 24.45375 48.375 24.6875 C53.12716133 26.40811014 57.51049376 28.69365304 62 31 C62.89847656 31.44472656 63.79695312 31.88945313 64.72265625 32.34765625 C69.83343019 34.92436349 74.8755022 37.63145443 79.92382812 40.328125 C84.54413954 42.77655818 89.15988544 45.01965703 94 47 C94 47.66 94 48.32 94 49 C95.02996094 49.26554688 96.05992187 49.53109375 97.12109375 49.8046875 C100.70647595 50.8326831 103.79268596 52.3107806 107.0625 54.125 C108.17753906 54.73988281 109.29257812 55.35476563 110.44140625 55.98828125 C112.89449796 57.36810267 115.33764265 58.76462306 117.77734375 60.16796875 C118.39923584 60.52552246 119.02112793 60.88307617 119.66186523 61.25146484 C121.4131882 62.26238922 123.15984807 63.28137921 124.90625 64.30078125 C127.58337281 65.77117067 130.15278507 66.91814886 133 68 C134.94204026 68.86487623 136.87953452 69.74002785 138.8125 70.625 C139.78832031 71.07101562 140.76414062 71.51703125 141.76953125 71.9765625 C142.50558594 72.31429687 143.24164062 72.65203125 144 73 C144 73.66 144 74.32 144 75 C144.60328125 75.19335938 145.2065625 75.38671875 145.828125 75.5859375 C147.02695312 75.97652344 147.02695312 75.97652344 148.25 76.375 C149.43335938 76.75785156 149.43335938 76.75785156 150.640625 77.1484375 C152.86627958 77.95173667 154.90931672 78.89711662 157 80 C157 80.66 157 81.32 157 82 C158.32 82 159.64 82 161 82 C161 82.66 161 83.32 161 84 C161.59039063 84.13148438 162.18078125 84.26296875 162.7890625 84.3984375 C166.42601636 85.38799738 169.66163655 87.28239926 173 89 C175.43578639 90.2327291 177.87315716 91.46186672 180.3125 92.6875 C180.92335449 92.99703613 181.53420898 93.30657227 182.16357422 93.62548828 C184.75545474 94.92896934 187.24260302 96.08086767 190 97 C190 97.66 190 98.32 190 99 C190.81198853 99.15758789 190.81198853 99.15758789 191.64038086 99.31835938 C194.57811776 100.16700515 197.05053873 101.47575496 199.75390625 102.90625 C200.85541016 103.48503906 201.95691406 104.06382812 203.09179688 104.66015625 C204.23712891 105.26730469 205.38246094 105.87445312 206.5625 106.5 C208.83360167 107.69987536 211.10569186 108.89788209 213.37890625 110.09375 C214.3851001 110.62677734 215.39129395 111.15980469 216.42797852 111.70898438 C219.01600941 113.08475928 219.01600941 113.08475928 222 114 C222 114.66 222 115.32 222 116 C222.58628174 116.13051758 223.17256348 116.26103516 223.77661133 116.39550781 C227.29767715 117.35281087 230.44939689 119.10124453 233.6875 120.75 C234.40067383 121.10908447 235.11384766 121.46816895 235.84863281 121.83813477 C240.37452017 124.13040718 244.83245675 126.51114948 249.203125 129.08984375 C251.11394373 130.05771497 252.90935268 130.56059404 255 131 C255 131.66 255 132.32 255 133 C255.56847656 133.18175781 256.13695312 133.36351562 256.72265625 133.55078125 C270.08807663 137.90179456 270.08807663 137.90179456 274 142 C276.10332891 142.71447643 276.10332891 142.71447643 278 143 C278 143.66 278 144.32 278 145 C278.50917969 145.09152344 279.01835938 145.18304687 279.54296875 145.27734375 C283.00136063 146.29451783 286.11250741 147.9317641 289.3125 149.5625 C290.01310547 149.91602539 290.71371094 150.26955078 291.43554688 150.63378906 C296.96487196 153.43812389 302.4420067 156.33651111 307.90209961 159.27294922 C311.63230463 161.27856461 315.38691698 163.21059713 319.1875 165.078125 C321.28257472 166.14372335 323.32639486 167.28515961 325.375 168.4375 C330.95431534 171.56689299 336.6783615 174.38983174 342.43359375 177.1796875 C348.24823576 180.02653623 353.80070835 183.18776496 359.3359375 186.546875 C361.63350102 187.80009146 363.44679287 188.54018071 366 189 C366 189.66 366 190.32 366 191 C366.845625 191.268125 367.69125 191.53625 368.5625 191.8125 C372.13854067 193.0478595 375.53860908 194.476988 379 196 C379 196.66 379 197.32 379 198 C379.58918213 198.13124268 380.17836426 198.26248535 380.78540039 198.39770508 C384.22534536 199.33325179 387.2824334 201.06198089 390.4375 202.6875 C397.55006041 206.30272407 404.7287808 209.7130105 412 213 C412 213.66 412 214.32 412 215 C412.56847656 215.18175781 413.13695312 215.36351562 413.72265625 215.55078125 C426.82591972 219.81645133 426.82591972 219.81645133 429.453125 222.46484375 C431.15621137 224.15502795 432.71864821 225.02627647 434.875 226.0625 C435.58269531 226.40410156 436.29039062 226.74570312 437.01953125 227.09765625 C438.51350052 227.77834047 440.0331017 228.40316164 441.5625 229 C444.17413274 230.07143907 446.53592502 231.4309857 448.96875 232.85546875 C452.89388659 235.06713225 456.95930734 237.01011115 461 239 C462.33378592 239.66576072 463.66727997 240.33210813 465 241 C465 241.99 465 242.98 465 244 C463.96875 244.350625 462.9375 244.70125 461.875 245.0625 C456.97913089 246.87643712 452.37490998 249.25813388 447.74951172 251.66235352 C443.20440094 254 443.20440094 254 441 254 C441 254.66 441 255.32 441 256 C440.50113281 256.20753906 440.00226563 256.41507813 439.48828125 256.62890625 C434.67102911 258.6959139 430.04690289 261.00189703 425.4375 263.5 C423.77654297 264.39912109 423.77654297 264.39912109 422.08203125 265.31640625 C420.26002965 266.31169483 418.44277889 267.31591214 416.63671875 268.33984375 C412.23561382 270.74122333 408.99703679 271.74030175 404 271 C401.965081 269.72059293 399.96756542 268.38074766 398 267 C397.14921875 266.4328125 396.2984375 265.865625 395.421875 265.28125 C295.2734375 198.515625 295.2734375 198.515625 293.47436523 197.31616211 C292.28387295 196.5225548 291.09328061 195.72909757 289.90258789 194.93579102 C286.19432153 192.46475903 282.48887029 189.98956976 278.78515625 187.51171875 C276.94015944 186.27856313 275.09510697 185.04549079 273.25 183.8125 C272.35023438 183.21034668 271.45046875 182.60819336 270.5234375 181.98779297 C264.97335748 178.28329901 259.38663449 174.67444059 253.66796875 171.234375 C253.11753906 170.82703125 252.56710937 170.4196875 252 170 C252 169.34 252 168.68 252 168 C251.28457031 167.731875 250.56914063 167.46375 249.83203125 167.1875 C246.95871061 165.98268693 244.36662374 164.58762888 241.6875 163 C240.80449219 162.484375 239.92148438 161.96875 239.01171875 161.4375 C238.34785156 160.963125 237.68398437 160.48875 237 160 C237 159.34 237 158.68 237 158 C236.40848145 157.87705566 235.81696289 157.75411133 235.20751953 157.62744141 C231.68117502 156.62515149 228.86693109 154.42848453 225.875 152.375 C225.20629883 151.92278076 224.53759766 151.47056152 223.84863281 151.00463867 C219.31934382 147.93259444 214.84173302 144.78942151 210.37109375 141.6328125 C206.98706972 139.30246316 203.51098073 137.12761163 200.03515625 134.9375 C194.61349653 131.47656921 189.28306353 127.8781309 183.93945312 124.29833984 C180.18192034 121.78291193 176.41764742 119.27758598 172.65454102 116.77050781 C169.36500727 114.57835178 166.07756271 112.38314586 162.79296875 110.18359375 C161.76236328 109.49426758 161.76236328 109.49426758 160.7109375 108.79101562 C159.38869238 107.90654085 158.06705108 107.02116255 156.74609375 106.13476562 C153.45837363 103.92382679 153.45837363 103.92382679 150 102 C150 101.34 150 100.68 150 100 C149.31292969 99.75636719 148.62585938 99.51273438 147.91796875 99.26171875 C144.48000904 97.77515786 141.43323168 95.85950602 138.3125 93.8125 C137.75111328 93.45091797 137.18972656 93.08933594 136.61132812 92.71679688 C133.14047939 90.46365373 129.73846664 88.12505715 126.35546875 85.7421875 C120.30898163 81.4906886 114.15681253 77.40173593 108 73.3125 C106.80037606 72.51444266 105.60083272 71.71626415 104.40136719 70.91796875 C102.02640407 69.33750768 99.65107014 67.75760666 97.27539062 66.17822266 C92.9311296 63.2891725 88.59030681 60.39498561 84.25 57.5 C82.83596217 56.55725466 81.42190042 55.6145452 80.0078125 54.671875 C64.8203125 44.546875 64.8203125 44.546875 63.03955078 43.35961914 C61.52239543 42.34824277 60.00512452 41.33703973 58.48779297 40.32592773 C53.27305248 36.85047175 48.05994661 33.3726026 42.84933472 29.89096069 C39.93515451 27.94397925 37.02034561 25.99794021 34.10546875 24.05200195 C32.60031962 23.04686679 31.09544306 22.04132336 29.59082031 21.03540039 C27.39199117 19.56549493 25.19219016 18.09705452 22.9921875 16.62890625 C22.31832001 16.17794083 21.64445251 15.7269754 20.95016479 15.26234436 C17.56202579 12.98476463 17.56202579 12.98476463 14 11 C14 10.34 14 9.68 14 9 C13.34 9 12.68 9 12 9 C12 8.34 12 7.68 12 7 C11.01 7 10.02 7 9 7 C9 6.34 9 5.68 9 5 C8.071875 4.731875 7.14375 4.46375 6.1875 4.1875 C3.23759634 3.08851629 1.94384814 2.37581439 0 0 Z " fill="#010101" transform="translate(824,739)"/>
</svg>
